#N canvas 531 821 1920 997 12;
#X obj 12 9 r startlayer3;
#X obj 433 131 random 20;
#X obj 433 155 + 20;
#X floatatom 433 179 5 0 0 0 - - - 0;
#X obj 407 68 delay 3;
#X obj 12 33 bng 15 250 50 0 empty empty empty 17 7 0 10 #fcfcfc #000000
#000000;
#X obj 26 1153 + 1;
#X floatatom 31 1178 5 0 0 0 - - - 0;
#X obj 63 1298 print;
#X obj 44 1400 readsf~;
#X msg -32 1351 1;
#X obj 9 1255 bng 15 250 50 0 empty empty empty 17 7 0 10 #fcfcfc #000000
#000000;
#X obj 131 206 tgl 15 0 empty empty empty 17 7 0 10 #fcfcfc #000000
#000000 0 1;
#X msg 111 142 1;
#X msg 147 141 0;
#X obj 132 704 + 1;
#X obj 144 897 bng 15 250 50 0 empty empty empty 17 7 0 10 #fcfcfc
#000000 #000000;
#X obj 44 1537 *~ 0.6;
#X obj 44 1561 dac~ 1;
#X obj -32 1323 delay 500;
#X obj 124 1453 s counter;
#X obj 653 59 r counter;
#X msg 653 83 1;
#X floatatom 653 107 5 0 0 0 - - - 0;
#X obj 653 150 + 1;
#X floatatom 653 189 5 0 0 0 - - - 0;
#X msg 513 130 0;
#X obj 493 233 ==;
#X floatatom 493 263 5 0 0 0 - - - 0;
#X obj 493 289 select 0 1;
#X obj 527 334 s counterreset;
#X obj 527 313 bng 15 250 50 0 empty empty empty 17 7 0 10 #fcfcfc
#000000 #000000;
#X obj 147 105 r counterreset;
#X obj 513 99 r counterreset;
#X obj 511 359 delay 100;
#X obj 511 386 s Auswahl;
#X obj 144 917 random 8;
#X obj 144 941 + 1;
#X floatatom 144 965 5 0 0 0 - - - 0;
#X obj 144 988 select 1 2 3 4 5 6 7 8;
#X obj 200 1149 + 1;
#X floatatom 205 1176 5 0 0 0 - - - 0;
#X obj 237 1294 print;
#X obj 218 1396 readsf~;
#X obj 183 1251 bng 15 250 50 0 empty empty empty 17 7 0 10 #fcfcfc
#000000 #000000;
#X obj 218 1533 *~ 0.6;
#X obj 142 1319 delay 500;
#X obj 298 1449 s counter;
#X obj 368 1148 + 1;
#X floatatom 373 1175 5 0 0 0 - - - 0;
#X obj 405 1293 print;
#X obj 386 1395 readsf~;
#X msg 310 1346 1;
#X obj 351 1250 bng 15 250 50 0 empty empty empty 17 7 0 10 #fcfcfc
#000000 #000000;
#X obj 386 1532 *~ 0.6;
#X obj 310 1318 delay 500;
#X obj 466 1448 s counter;
#X obj 542 1144 + 1;
#X floatatom 547 1171 5 0 0 0 - - - 0;
#X obj 579 1289 print;
#X obj 560 1391 readsf~;
#X obj 525 1246 bng 15 250 50 0 empty empty empty 17 7 0 10 #fcfcfc
#000000 #000000;
#X obj 560 1528 *~ 0.6;
#X obj 484 1314 delay 500;
#X obj 640 1444 s counter;
#X obj 712 1142 + 1;
#X floatatom 717 1169 5 0 0 0 - - - 0;
#X obj 749 1287 print;
#X obj 730 1389 readsf~;
#X msg 654 1340 1;
#X obj 695 1244 bng 15 250 50 0 empty empty empty 17 7 0 10 #fcfcfc
#000000 #000000;
#X obj 730 1526 *~ 0.6;
#X obj 654 1312 delay 500;
#X obj 810 1442 s counter;
#X obj 886 1138 + 1;
#X floatatom 891 1165 5 0 0 0 - - - 0;
#X obj 923 1283 print;
#X obj 904 1385 readsf~;
#X obj 869 1240 bng 15 250 50 0 empty empty empty 17 7 0 10 #fcfcfc
#000000 #000000;
#X obj 904 1522 *~ 0.6;
#X obj 828 1308 delay 500;
#X obj 984 1438 s counter;
#X obj 1054 1137 + 1;
#X floatatom 1059 1164 5 0 0 0 - - - 0;
#X obj 1091 1282 print;
#X obj 1072 1384 readsf~;
#X msg 996 1335 1;
#X obj 1037 1239 bng 15 250 50 0 empty empty empty 17 7 0 10 #fcfcfc
#000000 #000000;
#X obj 1072 1521 *~ 0.6;
#X obj 996 1307 delay 500;
#X obj 1152 1437 s counter;
#X obj 1228 1133 + 1;
#X floatatom 1233 1160 5 0 0 0 - - - 0;
#X obj 1265 1278 print;
#X obj 1246 1380 readsf~;
#X obj 1211 1235 bng 15 250 50 0 empty empty empty 17 7 0 10 #fcfcfc
#000000 #000000;
#X obj 1246 1517 *~ 0.6;
#X obj 1170 1303 delay 500;
#X obj 1326 1433 s counter;
#X obj 131 321 s aehms;
#X obj 132 649 r aehms;
#X obj 218 1556 dac~ 2;
#X obj 386 1555 dac~ 3;
#X obj 560 1552 dac~ 4;
#X obj 730 1550 dac~ 5;
#X obj 904 1546 dac~ 6;
#X obj 1073 1544 dac~ 7;
#X obj 1246 1541 dac~ 8;
#X obj 1426 1133 + 1;
#X floatatom 1431 1160 5 0 0 0 - - - 0;
#X obj 1463 1278 print;
#X obj 1444 1380 readsf~;
#X msg 1368 1331 1;
#X obj 1409 1235 bng 15 250 50 0 empty empty empty 17 7 0 10 #fcfcfc
#000000 #000000;
#X obj 1444 1517 *~ 0.6;
#X obj 1368 1303 delay 500;
#X obj 1524 1433 s counter;
#X obj 1544 897 random 8;
#X obj 1544 921 + 1;
#X floatatom 1544 945 5 0 0 0 - - - 0;
#X obj 1544 968 select 1 2 3 4 5 6 7 8;
#X obj 1600 1129 + 1;
#X floatatom 1605 1156 5 0 0 0 - - - 0;
#X obj 1637 1274 print;
#X obj 1618 1376 readsf~;
#X obj 1583 1231 bng 15 250 50 0 empty empty empty 17 7 0 10 #fcfcfc
#000000 #000000;
#X obj 1618 1513 *~ 0.6;
#X obj 1542 1299 delay 500;
#X obj 1698 1429 s counter;
#X obj 1768 1128 + 1;
#X floatatom 1773 1155 5 0 0 0 - - - 0;
#X obj 1805 1273 print;
#X obj 1786 1375 readsf~;
#X msg 1710 1326 1;
#X obj 1751 1230 bng 15 250 50 0 empty empty empty 17 7 0 10 #fcfcfc
#000000 #000000;
#X obj 1786 1512 *~ 0.6;
#X obj 1710 1298 delay 500;
#X obj 1866 1428 s counter;
#X obj 1942 1124 + 1;
#X floatatom 1947 1151 5 0 0 0 - - - 0;
#X obj 1979 1269 print;
#X obj 1960 1371 readsf~;
#X obj 1925 1226 bng 15 250 50 0 empty empty empty 17 7 0 10 #fcfcfc
#000000 #000000;
#X obj 1960 1508 *~ 0.6;
#X obj 1884 1294 delay 500;
#X obj 2040 1424 s counter;
#X obj 2112 1122 + 1;
#X floatatom 2117 1149 5 0 0 0 - - - 0;
#X obj 2149 1267 print;
#X obj 2130 1369 readsf~;
#X msg 2054 1320 1;
#X obj 2095 1224 bng 15 250 50 0 empty empty empty 17 7 0 10 #fcfcfc
#000000 #000000;
#X obj 2130 1506 *~ 0.6;
#X obj 2054 1292 delay 500;
#X obj 2210 1422 s counter;
#X obj 2286 1118 + 1;
#X floatatom 2291 1145 5 0 0 0 - - - 0;
#X obj 2323 1263 print;
#X obj 2304 1365 readsf~;
#X obj 2269 1220 bng 15 250 50 0 empty empty empty 17 7 0 10 #fcfcfc
#000000 #000000;
#X obj 2304 1502 *~ 0.6;
#X obj 2228 1288 delay 500;
#X obj 2384 1418 s counter;
#X obj 2454 1117 + 1;
#X floatatom 2459 1144 5 0 0 0 - - - 0;
#X obj 2491 1262 print;
#X obj 2472 1364 readsf~;
#X msg 2396 1315 1;
#X obj 2437 1219 bng 15 250 50 0 empty empty empty 17 7 0 10 #fcfcfc
#000000 #000000;
#X obj 2472 1501 *~ 0.6;
#X obj 2396 1287 delay 500;
#X obj 2552 1417 s counter;
#X obj 2628 1113 + 1;
#X floatatom 2633 1140 5 0 0 0 - - - 0;
#X obj 2665 1258 print;
#X obj 2646 1360 readsf~;
#X obj 2611 1215 bng 15 250 50 0 empty empty empty 17 7 0 10 #fcfcfc
#000000 #000000;
#X obj 2646 1497 *~ 0.6;
#X obj 2570 1283 delay 500;
#X obj 2726 1413 s counter;
#X obj 1444 1541 dac~ 9;
#X obj 1786 1535 dac~ 11;
#X obj 1960 1532 dac~ 12;
#X obj 2130 1530 dac~ 13;
#X obj 2304 1526 dac~ 14;
#X obj 2473 1524 dac~ 15;
#X obj 2646 1521 dac~ 16;
#X obj 2839 1112 + 1;
#X floatatom 2844 1139 5 0 0 0 - - - 0;
#X obj 2876 1257 print;
#X obj 2857 1359 readsf~;
#X msg 2781 1310 1;
#X obj 2822 1214 bng 15 250 50 0 empty empty empty 17 7 0 10 #fcfcfc
#000000 #000000;
#X obj 2857 1496 *~ 0.6;
#X obj 2781 1282 delay 500;
#X obj 2937 1412 s counter;
#X obj 2957 876 random 8;
#X obj 2957 900 + 1;
#X floatatom 2957 924 5 0 0 0 - - - 0;
#X obj 2957 947 select 1 2 3 4 5 6 7 8;
#X obj 3013 1108 + 1;
#X floatatom 3018 1135 5 0 0 0 - - - 0;
#X obj 3050 1253 print;
#X obj 3031 1355 readsf~;
#X obj 2996 1210 bng 15 250 50 0 empty empty empty 17 7 0 10 #fcfcfc
#000000 #000000;
#X obj 3031 1492 *~ 0.6;
#X obj 2955 1278 delay 500;
#X obj 3111 1408 s counter;
#X obj 3181 1107 + 1;
#X floatatom 3186 1134 5 0 0 0 - - - 0;
#X obj 3218 1252 print;
#X obj 3199 1354 readsf~;
#X msg 3123 1305 1;
#X obj 3164 1209 bng 15 250 50 0 empty empty empty 17 7 0 10 #fcfcfc
#000000 #000000;
#X obj 3199 1491 *~ 0.6;
#X obj 3123 1277 delay 500;
#X obj 3279 1407 s counter;
#X obj 3355 1103 + 1;
#X floatatom 3360 1130 5 0 0 0 - - - 0;
#X obj 3392 1248 print;
#X obj 3373 1350 readsf~;
#X obj 3338 1205 bng 15 250 50 0 empty empty empty 17 7 0 10 #fcfcfc
#000000 #000000;
#X obj 3373 1487 *~ 0.6;
#X obj 3297 1273 delay 500;
#X obj 3453 1403 s counter;
#X obj 3525 1101 + 1;
#X floatatom 3530 1128 5 0 0 0 - - - 0;
#X obj 3562 1246 print;
#X obj 3543 1348 readsf~;
#X msg 3467 1299 1;
#X obj 3508 1203 bng 15 250 50 0 empty empty empty 17 7 0 10 #fcfcfc
#000000 #000000;
#X obj 3543 1485 *~ 0.6;
#X obj 3467 1271 delay 500;
#X obj 3623 1401 s counter;
#X obj 3699 1097 + 1;
#X floatatom 3704 1124 5 0 0 0 - - - 0;
#X obj 3736 1242 print;
#X obj 3717 1344 readsf~;
#X obj 3682 1199 bng 15 250 50 0 empty empty empty 17 7 0 10 #fcfcfc
#000000 #000000;
#X obj 3717 1481 *~ 0.6;
#X obj 3641 1267 delay 500;
#X obj 3797 1397 s counter;
#X obj 3867 1096 + 1;
#X floatatom 3872 1123 5 0 0 0 - - - 0;
#X obj 3904 1241 print;
#X obj 3885 1343 readsf~;
#X msg 3809 1294 1;
#X obj 3850 1198 bng 15 250 50 0 empty empty empty 17 7 0 10 #fcfcfc
#000000 #000000;
#X obj 3885 1480 *~ 0.6;
#X obj 3809 1266 delay 500;
#X obj 3965 1396 s counter;
#X obj 4041 1092 + 1;
#X floatatom 4046 1119 5 0 0 0 - - - 0;
#X obj 4078 1237 print;
#X obj 4059 1339 readsf~;
#X obj 4024 1194 bng 15 250 50 0 empty empty empty 17 7 0 10 #fcfcfc
#000000 #000000;
#X obj 4059 1476 *~ 0.6;
#X obj 3983 1262 delay 500;
#X obj 4139 1392 s counter;
#X obj 2857 1520 dac~ 17;
#X obj 1618 1536 dac~ 10;
#X obj 3031 1515 dac~ 18;
#X obj 3199 1514 dac~ 19;
#X obj 3373 1511 dac~ 20;
#X obj 3542 1508 dac~ 21;
#X obj 3717 1505 dac~ 22;
#X obj 3886 1503 dac~ 23;
#X obj 4059 1500 dac~ 24;
#X obj 131 285 metro 4000;
#X obj 104 1430 bng 15 250 50 0 empty empty empty 17 7 0 10 #fcfcfc
#000000 #000000;
#X msg 44 1253 open Ehms\$1.wav;
#X msg 218 1249 open Ehms\$1.wav;
#X msg 386 1248 open Ehms\$1.wav;
#X msg 560 1244 open Ehms\$1.wav;
#X msg 730 1242 open Ehms\$1.wav;
#X msg 904 1238 open Ehms\$1.wav;
#X msg 1072 1237 open Ehms\$1.wav;
#X msg 1246 1233 open Ehms\$1.wav;
#X msg 1444 1233 open Ehms\$1.wav;
#X msg 1618 1229 open Ehms\$1.wav;
#X msg 1784 1227 open Ehms\$1.wav;
#X msg 1960 1224 open Ehms\$1.wav;
#X msg 2130 1222 open Ehms\$1.wav;
#X msg 2304 1218 open Ehms\$1.wav;
#X msg 2472 1217 open Ehms\$1.wav;
#X msg 2646 1213 open Ehms\$1.wav;
#X msg 2857 1212 open Ehms\$1.wav;
#X msg 3031 1208 open Ehms\$1.wav;
#X msg 3199 1207 open Ehms\$1.wav;
#X msg 3373 1203 open Ehms\$1.wav;
#X msg 3543 1201 open Ehms\$1.wav;
#X msg 3717 1197 open Ehms\$1.wav;
#X msg 3885 1196 open Ehms\$1.wav;
#X msg 4059 1192 open Ehms\$1.wav;
#X msg 141 1351 1;
#X msg 482 1347 1;
#X msg 828 1332 1;
#X msg 1170 1327 1;
#X msg 1542 1323 1;
#X msg 1884 1318 1;
#X msg 2228 1312;
#X msg 2570 1307 1;
#X msg 2955 1302 1;
#X msg 3297 1297 1;
#X msg 3641 1291 1;
#X msg 3983 1286 1;
#X obj 187 197 s layer4active;
#X obj 133 728 select 1 2 3 4 5 6 7;
#X obj 42 787 delay 20;
#X obj 76 820 delay 2000;
#X obj 122 852 delay 3000;
#X obj 166 785 delay 4000;
#X obj 200 818 delay 5000;
#X obj 246 850 delay 6000;
#X obj 295 777 delay 8000;
#X obj 132 680 random 7;
#X obj 1536 670 + 1;
#X obj 1548 863 bng 15 250 50 0 empty empty empty 17 7 0 10 #fcfcfc
#000000 #000000;
#X obj 1536 615 r aehms;
#X obj 1537 694 select 1 2 3 4 5 6 7;
#X obj 1446 753 delay 20;
#X obj 1480 786 delay 2000;
#X obj 1526 818 delay 3000;
#X obj 1570 751 delay 4000;
#X obj 1604 784 delay 5000;
#X obj 1650 816 delay 6000;
#X obj 1699 743 delay 8000;
#X obj 1536 646 random 7;
#X obj 2942 643 + 1;
#X obj 2954 836 bng 15 250 50 0 empty empty empty 17 7 0 10 #fcfcfc
#000000 #000000;
#X obj 2942 588 r aehms;
#X obj 2943 667 select 1 2 3 4 5 6 7;
#X obj 2852 726 delay 20;
#X obj 2886 759 delay 2000;
#X obj 2932 791 delay 3000;
#X obj 2976 724 delay 4000;
#X obj 3010 757 delay 5000;
#X obj 3056 789 delay 6000;
#X obj 3105 716 delay 8000;
#X obj 2942 619 random 7;
#X obj 26 1129 random 88;
#X obj 200 1125 random 88;
#X obj 368 1124 random 88;
#X obj 542 1120 random 88;
#X obj 712 1118 random 88;
#X obj 886 1114 random 88;
#X obj 1054 1113 random 88;
#X obj 1228 1109 random 88;
#X obj 1426 1109 random 88;
#X obj 1600 1105 random 88;
#X obj 1768 1104 random 88;
#X obj 1942 1100 random 88;
#X obj 2112 1098 random 88;
#X obj 2286 1094 random 88;
#X obj 2454 1093 random 88;
#X obj 2628 1088 random 88;
#X obj 2839 1088 random 88;
#X obj 3013 1084 random 88;
#X obj 3181 1083 random 88;
#X obj 3355 1079 random 88;
#X obj 3525 1077 random 88;
#X obj 3699 1073 random 88;
#X obj 3867 1072 random 88;
#X obj 4041 1068 random 88;
#X connect 0 0 5 0;
#X connect 1 0 2 0;
#X connect 2 0 3 0;
#X connect 3 0 27 1;
#X connect 4 0 1 0;
#X connect 5 0 4 0;
#X connect 5 0 13 0;
#X connect 6 0 7 0;
#X connect 7 0 11 0;
#X connect 7 0 270 0;
#X connect 9 0 17 0;
#X connect 9 1 269 0;
#X connect 10 0 9 0;
#X connect 11 0 19 0;
#X connect 12 0 268 0;
#X connect 13 0 12 0;
#X connect 13 0 306 0;
#X connect 14 0 12 0;
#X connect 14 0 306 0;
#X connect 15 0 307 0;
#X connect 16 0 36 0;
#X connect 17 0 18 0;
#X connect 19 0 10 0;
#X connect 21 0 22 0;
#X connect 22 0 23 0;
#X connect 23 0 24 0;
#X connect 24 0 25 0;
#X connect 25 0 24 1;
#X connect 25 0 27 0;
#X connect 26 0 25 0;
#X connect 27 0 28 0;
#X connect 28 0 29 0;
#X connect 29 1 31 0;
#X connect 31 0 30 0;
#X connect 31 0 34 0;
#X connect 32 0 14 0;
#X connect 33 0 26 0;
#X connect 34 0 35 0;
#X connect 36 0 37 0;
#X connect 37 0 38 0;
#X connect 38 0 39 0;
#X connect 39 0 340 0;
#X connect 39 1 341 0;
#X connect 39 2 342 0;
#X connect 39 3 343 0;
#X connect 39 4 344 0;
#X connect 39 5 345 0;
#X connect 39 6 346 0;
#X connect 39 7 347 0;
#X connect 40 0 41 0;
#X connect 41 0 44 0;
#X connect 41 0 271 0;
#X connect 43 0 45 0;
#X connect 43 1 47 0;
#X connect 44 0 46 0;
#X connect 45 0 101 0;
#X connect 46 0 294 0;
#X connect 48 0 49 0;
#X connect 49 0 53 0;
#X connect 49 0 272 0;
#X connect 51 0 54 0;
#X connect 51 1 56 0;
#X connect 52 0 51 0;
#X connect 53 0 55 0;
#X connect 54 0 102 0;
#X connect 55 0 52 0;
#X connect 57 0 58 0;
#X connect 58 0 61 0;
#X connect 58 0 273 0;
#X connect 60 0 62 0;
#X connect 60 1 64 0;
#X connect 61 0 63 0;
#X connect 62 0 103 0;
#X connect 63 0 295 0;
#X connect 65 0 66 0;
#X connect 66 0 70 0;
#X connect 66 0 274 0;
#X connect 68 0 71 0;
#X connect 68 1 73 0;
#X connect 69 0 68 0;
#X connect 70 0 72 0;
#X connect 71 0 104 0;
#X connect 72 0 69 0;
#X connect 74 0 75 0;
#X connect 75 0 78 0;
#X connect 75 0 275 0;
#X connect 77 0 79 0;
#X connect 77 1 81 0;
#X connect 78 0 80 0;
#X connect 79 0 105 0;
#X connect 80 0 296 0;
#X connect 82 0 83 0;
#X connect 83 0 87 0;
#X connect 83 0 276 0;
#X connect 85 0 88 0;
#X connect 85 1 90 0;
#X connect 86 0 85 0;
#X connect 87 0 89 0;
#X connect 88 0 106 0;
#X connect 89 0 86 0;
#X connect 91 0 92 0;
#X connect 92 0 95 0;
#X connect 92 0 277 0;
#X connect 94 0 96 0;
#X connect 94 1 98 0;
#X connect 95 0 97 0;
#X connect 96 0 107 0;
#X connect 97 0 297 0;
#X connect 100 0 315 0;
#X connect 108 0 109 0;
#X connect 109 0 113 0;
#X connect 109 0 278 0;
#X connect 111 0 114 0;
#X connect 111 1 116 0;
#X connect 112 0 111 0;
#X connect 113 0 115 0;
#X connect 114 0 180 0;
#X connect 115 0 112 0;
#X connect 117 0 118 0;
#X connect 118 0 119 0;
#X connect 119 0 120 0;
#X connect 120 0 348 0;
#X connect 120 1 349 0;
#X connect 120 2 350 0;
#X connect 120 3 351 0;
#X connect 120 4 352 0;
#X connect 120 5 353 0;
#X connect 120 6 354 0;
#X connect 120 7 355 0;
#X connect 121 0 122 0;
#X connect 122 0 125 0;
#X connect 122 0 279 0;
#X connect 124 0 126 0;
#X connect 124 1 128 0;
#X connect 125 0 127 0;
#X connect 126 0 260 0;
#X connect 127 0 298 0;
#X connect 129 0 130 0;
#X connect 130 0 134 0;
#X connect 130 0 280 0;
#X connect 132 0 135 0;
#X connect 132 1 137 0;
#X connect 133 0 132 0;
#X connect 134 0 136 0;
#X connect 135 0 181 0;
#X connect 136 0 133 0;
#X connect 138 0 139 0;
#X connect 139 0 142 0;
#X connect 139 0 281 0;
#X connect 141 0 143 0;
#X connect 141 1 145 0;
#X connect 142 0 144 0;
#X connect 143 0 182 0;
#X connect 144 0 299 0;
#X connect 146 0 147 0;
#X connect 147 0 151 0;
#X connect 147 0 282 0;
#X connect 149 0 152 0;
#X connect 149 1 154 0;
#X connect 150 0 149 0;
#X connect 151 0 153 0;
#X connect 152 0 183 0;
#X connect 153 0 150 0;
#X connect 155 0 156 0;
#X connect 156 0 159 0;
#X connect 156 0 283 0;
#X connect 158 0 160 0;
#X connect 158 1 162 0;
#X connect 159 0 161 0;
#X connect 160 0 184 0;
#X connect 161 0 300 0;
#X connect 163 0 164 0;
#X connect 164 0 168 0;
#X connect 164 0 284 0;
#X connect 166 0 169 0;
#X connect 166 1 171 0;
#X connect 167 0 166 0;
#X connect 168 0 170 0;
#X connect 169 0 185 0;
#X connect 170 0 167 0;
#X connect 172 0 173 0;
#X connect 173 0 176 0;
#X connect 173 0 285 0;
#X connect 175 0 177 0;
#X connect 175 1 179 0;
#X connect 176 0 178 0;
#X connect 177 0 186 0;
#X connect 178 0 301 0;
#X connect 187 0 188 0;
#X connect 188 0 192 0;
#X connect 188 0 286 0;
#X connect 190 0 193 0;
#X connect 190 1 195 0;
#X connect 191 0 190 0;
#X connect 192 0 194 0;
#X connect 193 0 259 0;
#X connect 194 0 191 0;
#X connect 196 0 197 0;
#X connect 197 0 198 0;
#X connect 198 0 199 0;
#X connect 199 0 356 0;
#X connect 199 1 357 0;
#X connect 199 2 358 0;
#X connect 199 3 359 0;
#X connect 199 4 360 0;
#X connect 199 5 361 0;
#X connect 199 6 362 0;
#X connect 199 7 363 0;
#X connect 200 0 201 0;
#X connect 201 0 204 0;
#X connect 201 0 287 0;
#X connect 203 0 205 0;
#X connect 203 1 207 0;
#X connect 204 0 206 0;
#X connect 205 0 261 0;
#X connect 206 0 302 0;
#X connect 208 0 209 0;
#X connect 209 0 213 0;
#X connect 209 0 288 0;
#X connect 211 0 214 0;
#X connect 211 1 216 0;
#X connect 212 0 211 0;
#X connect 213 0 215 0;
#X connect 214 0 262 0;
#X connect 215 0 212 0;
#X connect 217 0 218 0;
#X connect 218 0 221 0;
#X connect 218 0 289 0;
#X connect 220 0 222 0;
#X connect 220 1 224 0;
#X connect 221 0 223 0;
#X connect 222 0 263 0;
#X connect 223 0 303 0;
#X connect 225 0 226 0;
#X connect 226 0 230 0;
#X connect 226 0 290 0;
#X connect 228 0 231 0;
#X connect 228 1 233 0;
#X connect 229 0 228 0;
#X connect 230 0 232 0;
#X connect 231 0 264 0;
#X connect 232 0 229 0;
#X connect 234 0 235 0;
#X connect 235 0 238 0;
#X connect 235 0 291 0;
#X connect 237 0 239 0;
#X connect 237 1 241 0;
#X connect 238 0 240 0;
#X connect 239 0 265 0;
#X connect 240 0 304 0;
#X connect 242 0 243 0;
#X connect 243 0 247 0;
#X connect 243 0 292 0;
#X connect 245 0 248 0;
#X connect 245 1 250 0;
#X connect 246 0 245 0;
#X connect 247 0 249 0;
#X connect 248 0 266 0;
#X connect 249 0 246 0;
#X connect 251 0 252 0;
#X connect 252 0 255 0;
#X connect 252 0 293 0;
#X connect 254 0 256 0;
#X connect 254 1 258 0;
#X connect 255 0 257 0;
#X connect 256 0 267 0;
#X connect 257 0 305 0;
#X connect 268 0 99 0;
#X connect 269 0 20 0;
#X connect 270 0 8 0;
#X connect 270 0 9 0;
#X connect 271 0 42 0;
#X connect 271 0 43 0;
#X connect 272 0 50 0;
#X connect 272 0 51 0;
#X connect 273 0 59 0;
#X connect 273 0 60 0;
#X connect 274 0 67 0;
#X connect 274 0 68 0;
#X connect 275 0 76 0;
#X connect 275 0 77 0;
#X connect 276 0 84 0;
#X connect 276 0 85 0;
#X connect 277 0 93 0;
#X connect 277 0 94 0;
#X connect 278 0 110 0;
#X connect 278 0 111 0;
#X connect 279 0 123 0;
#X connect 279 0 124 0;
#X connect 280 0 131 0;
#X connect 280 0 132 0;
#X connect 281 0 140 0;
#X connect 281 0 141 0;
#X connect 282 0 148 0;
#X connect 282 0 149 0;
#X connect 283 0 157 0;
#X connect 283 0 158 0;
#X connect 284 0 165 0;
#X connect 284 0 166 0;
#X connect 285 0 174 0;
#X connect 285 0 175 0;
#X connect 286 0 189 0;
#X connect 286 0 190 0;
#X connect 287 0 202 0;
#X connect 287 0 203 0;
#X connect 288 0 210 0;
#X connect 288 0 211 0;
#X connect 289 0 219 0;
#X connect 289 0 220 0;
#X connect 290 0 227 0;
#X connect 290 0 228 0;
#X connect 291 0 236 0;
#X connect 291 0 237 0;
#X connect 292 0 244 0;
#X connect 292 0 245 0;
#X connect 293 0 253 0;
#X connect 293 0 254 0;
#X connect 294 0 43 0;
#X connect 295 0 60 0;
#X connect 296 0 77 0;
#X connect 297 0 94 0;
#X connect 298 0 124 0;
#X connect 299 0 141 0;
#X connect 300 0 158 0;
#X connect 301 0 175 0;
#X connect 302 0 203 0;
#X connect 303 0 220 0;
#X connect 304 0 237 0;
#X connect 305 0 254 0;
#X connect 307 0 308 0;
#X connect 307 1 309 0;
#X connect 307 2 310 0;
#X connect 307 3 311 0;
#X connect 307 4 312 0;
#X connect 307 5 313 0;
#X connect 307 6 314 0;
#X connect 308 0 16 0;
#X connect 309 0 16 0;
#X connect 310 0 16 0;
#X connect 311 0 16 0;
#X connect 312 0 16 0;
#X connect 313 0 16 0;
#X connect 314 0 16 0;
#X connect 315 0 15 0;
#X connect 316 0 319 0;
#X connect 317 0 117 0;
#X connect 318 0 327 0;
#X connect 319 0 320 0;
#X connect 319 1 321 0;
#X connect 319 2 322 0;
#X connect 319 3 323 0;
#X connect 319 4 324 0;
#X connect 319 5 325 0;
#X connect 319 6 326 0;
#X connect 320 0 317 0;
#X connect 321 0 317 0;
#X connect 322 0 317 0;
#X connect 323 0 317 0;
#X connect 324 0 317 0;
#X connect 325 0 317 0;
#X connect 326 0 317 0;
#X connect 327 0 316 0;
#X connect 328 0 331 0;
#X connect 329 0 196 0;
#X connect 330 0 339 0;
#X connect 331 0 332 0;
#X connect 331 1 333 0;
#X connect 331 2 334 0;
#X connect 331 3 335 0;
#X connect 331 4 336 0;
#X connect 331 5 337 0;
#X connect 331 6 338 0;
#X connect 332 0 329 0;
#X connect 333 0 329 0;
#X connect 334 0 329 0;
#X connect 335 0 329 0;
#X connect 336 0 329 0;
#X connect 337 0 329 0;
#X connect 338 0 329 0;
#X connect 339 0 328 0;
#X connect 340 0 6 0;
#X connect 341 0 40 0;
#X connect 342 0 48 0;
#X connect 343 0 57 0;
#X connect 344 0 65 0;
#X connect 345 0 74 0;
#X connect 346 0 82 0;
#X connect 347 0 91 0;
#X connect 348 0 108 0;
#X connect 349 0 121 0;
#X connect 350 0 129 0;
#X connect 351 0 138 0;
#X connect 352 0 146 0;
#X connect 353 0 155 0;
#X connect 354 0 163 0;
#X connect 355 0 172 0;
#X connect 356 0 187 0;
#X connect 357 0 200 0;
#X connect 358 0 208 0;
#X connect 359 0 217 0;
#X connect 360 0 225 0;
#X connect 361 0 234 0;
#X connect 362 0 242 0;
#X connect 363 0 251 0;
