#N canvas 395 92 1920 997 12;
#X obj 210 1020 s Baum1;
#X obj 210 994 tgl 15 0 empty empty empty 17 7 0 10 #fcfcfc #000000
#000000 0 1;
#X obj 210 761 select 1 2 3 4 5 6 7 8 9 10 11 12 13 14 15 16 17 18
19 20 21 22 23 24, f 240;
#X obj 210 872 bng 15 250 50 0 empty empty empty 17 7 0 10 #fcfcfc
#000000 #000000;
#X msg 210 897 0;
#X obj 210 806 bng 15 250 50 0 empty empty empty 17 7 0 10 #fcfcfc
#000000 #000000;
#X obj 279 805 bng 15 250 50 0 empty empty empty 17 7 0 10 #fcfcfc
#000000 #000000;
#X floatatom 209 171 5 0 0 0 - - - 0;
#X obj 200 954 delay 5;
#X msg 209 548 set \$1;
#X floatatom 210 572 5 0 0 0 - - - 0;
#X obj 216 475 delay 10 1 msec, f 9;
#X obj 233 448 s reset;
#X obj 209 106 r liste;
#X obj 279 995 tgl 15 0 empty empty empty 17 7 0 10 #fcfcfc #000000
#000000 0 1;
#X obj 279 873 bng 15 250 50 0 empty empty empty 17 7 0 10 #fcfcfc
#000000 #000000;
#X msg 279 898 0;
#X obj 269 954 delay 5;
#X obj 279 1021 s Baum2;
#X obj 210 599 s info;
#X obj 210 731 r info;
#X floatatom 288 172 5 0 0 0 - - - 0;
#X msg 288 549 set \$1;
#X floatatom 289 573 5 0 0 0 - - - 0;
#X obj 298 476 delay 10 1 msec, f 9;
#X obj 312 449 s reset;
#X obj 289 600 s info;
#X obj 216 210 bng 15 250 50 0 empty empty empty 17 7 0 10 #fcfcfc
#000000 #000000;
#X obj 248 209 r DM;
#X obj 298 209 bng 15 250 50 0 empty empty empty 17 7 0 10 #fcfcfc
#000000 #000000;
#X obj 330 208 r DM;
#X floatatom 367 172 5 0 0 0 - - - 0;
#X msg 367 549 set \$1;
#X floatatom 368 573 5 0 0 0 - - - 0;
#X obj 374 476 delay 10 1 msec, f 9;
#X obj 391 449 s reset;
#X obj 368 600 s info;
#X obj 375 211 bng 15 250 50 0 empty empty empty 17 7 0 10 #fcfcfc
#000000 #000000;
#X obj 406 210 r DM;
#X obj 349 993 tgl 15 0 empty empty empty 17 7 0 10 #fcfcfc #000000
#000000 0 1;
#X obj 349 871 bng 15 250 50 0 empty empty empty 17 7 0 10 #fcfcfc
#000000 #000000;
#X msg 349 896 0;
#X obj 349 805 bng 15 250 50 0 empty empty empty 17 7 0 10 #fcfcfc
#000000 #000000;
#X obj 419 804 bng 15 250 50 0 empty empty empty 17 7 0 10 #fcfcfc
#000000 #000000;
#X obj 339 953 delay 5;
#X obj 419 994 tgl 15 0 empty empty empty 17 7 0 10 #fcfcfc #000000
#000000 0 1;
#X obj 419 872 bng 15 250 50 0 empty empty empty 17 7 0 10 #fcfcfc
#000000 #000000;
#X msg 419 897 0;
#X obj 409 953 delay 5;
#X obj 209 143 unpack f f f f f f f f f f f f f f f f f f f f f f f
f f f f f f f f f f f f f f f f f f f f, f 477;
#X floatatom 298 354 5 0 0 0 - - - 0;
#X floatatom 216 355 5 0 0 0 - - - 0;
#X floatatom 374 355 8 0 0 0 - - - 0;
#X floatatom 375 242 5 0 0 0 - - - 0;
#X obj 375 406 delay 10 1 msec, f 8;
#X floatatom 216 240 5 0 0 0 - - - 0;
#X floatatom 298 239 5 0 0 0 - - - 0;
#X floatatom 447 172 5 0 0 0 - - - 0;
#X msg 447 549 set \$1;
#X floatatom 448 573 5 0 0 0 - - - 0;
#X obj 454 476 delay 10 1 msec, f 9;
#X obj 471 449 s reset;
#X obj 448 600 s info;
#X floatatom 526 173 5 0 0 0 - - - 0;
#X msg 526 550 set \$1;
#X floatatom 527 574 5 0 0 0 - - - 0;
#X obj 536 477 delay 10 1 msec, f 9;
#X obj 550 450 s reset;
#X obj 527 601 s info;
#X obj 454 211 bng 15 250 50 0 empty empty empty 17 7 0 10 #fcfcfc
#000000 #000000;
#X obj 486 210 r DM;
#X obj 536 210 bng 15 250 50 0 empty empty empty 17 7 0 10 #fcfcfc
#000000 #000000;
#X obj 568 209 r DM;
#X floatatom 606 173 5 0 0 0 - - - 0;
#X msg 606 550 set \$1;
#X floatatom 607 574 5 0 0 0 - - - 0;
#X obj 613 477 delay 10 1 msec, f 9;
#X obj 630 450 s reset;
#X obj 607 601 s info;
#X obj 614 212 bng 15 250 50 0 empty empty empty 17 7 0 10 #fcfcfc
#000000 #000000;
#X obj 639 210 r DM;
#X floatatom 536 355 5 0 0 0 - - - 0;
#X floatatom 454 356 5 0 0 0 - - - 0;
#X floatatom 613 356 8 0 0 0 - - - 0;
#X floatatom 614 243 5 0 0 0 - - - 0;
#X obj 614 407 delay 10 1 msec, f 8;
#X floatatom 454 241 5 0 0 0 - - - 0;
#X floatatom 536 240 5 0 0 0 - - - 0;
#X obj 454 407 delay 10 1 msec, f 8;
#X obj 536 406 delay 10 1 msec, f 8;
#X obj 216 406 delay 10 1 msec, f 8;
#X obj 298 405 delay 10 1 msec, f 8;
#X floatatom 685 174 5 0 0 0 - - - 0;
#X msg 685 551 set \$1;
#X floatatom 686 575 5 0 0 0 - - - 0;
#X obj 692 478 delay 10 1 msec, f 9;
#X obj 709 451 s reset;
#X obj 686 602 s info;
#X floatatom 765 175 5 0 0 0 - - - 0;
#X msg 765 552 set \$1;
#X floatatom 766 576 5 0 0 0 - - - 0;
#X obj 775 479 delay 10 1 msec, f 9;
#X obj 789 452 s reset;
#X obj 766 603 s info;
#X obj 692 213 bng 15 250 50 0 empty empty empty 17 7 0 10 #fcfcfc
#000000 #000000;
#X obj 724 212 r DM;
#X obj 775 212 bng 15 250 50 0 empty empty empty 17 7 0 10 #fcfcfc
#000000 #000000;
#X obj 807 211 r DM;
#X floatatom 844 175 5 0 0 0 - - - 0;
#X msg 844 552 set \$1;
#X floatatom 845 576 5 0 0 0 - - - 0;
#X obj 851 479 delay 10 1 msec, f 9;
#X obj 868 452 s reset;
#X obj 845 603 s info;
#X obj 852 214 bng 15 250 50 0 empty empty empty 17 7 0 10 #fcfcfc
#000000 #000000;
#X obj 883 213 r DM;
#X floatatom 775 357 8 0 0 0 - - - 0;
#X floatatom 692 358 7 0 0 0 - - - 0;
#X floatatom 851 358 8 0 0 0 - - - 0;
#X floatatom 852 245 5 0 0 0 - - - 0;
#X obj 852 409 delay 10 1 msec, f 8;
#X floatatom 692 243 5 0 0 0 - - - 0;
#X floatatom 775 242 5 0 0 0 - - - 0;
#X obj 692 409 delay 10 1 msec, f 8;
#X obj 775 408 delay 10 1 msec, f 8;
#X obj 489 992 tgl 15 0 empty empty empty 17 7 0 10 #fcfcfc #000000
#000000 0 1;
#X obj 489 870 bng 15 250 50 0 empty empty empty 17 7 0 10 #fcfcfc
#000000 #000000;
#X msg 489 895 0;
#X obj 489 804 bng 15 250 50 0 empty empty empty 17 7 0 10 #fcfcfc
#000000 #000000;
#X obj 559 803 bng 15 250 50 0 empty empty empty 17 7 0 10 #fcfcfc
#000000 #000000;
#X obj 479 952 delay 5;
#X obj 559 993 tgl 15 0 empty empty empty 17 7 0 10 #fcfcfc #000000
#000000 0 1;
#X obj 559 871 bng 15 250 50 0 empty empty empty 17 7 0 10 #fcfcfc
#000000 #000000;
#X msg 559 896 0;
#X obj 549 952 delay 5;
#X obj 629 992 tgl 15 0 empty empty empty 17 7 0 10 #fcfcfc #000000
#000000 0 1;
#X obj 629 870 bng 15 250 50 0 empty empty empty 17 7 0 10 #fcfcfc
#000000 #000000;
#X msg 629 895 0;
#X obj 629 804 bng 15 250 50 0 empty empty empty 17 7 0 10 #fcfcfc
#000000 #000000;
#X obj 699 802 bng 15 250 50 0 empty empty empty 17 7 0 10 #fcfcfc
#000000 #000000;
#X obj 619 952 delay 5;
#X obj 699 992 tgl 15 0 empty empty empty 17 7 0 10 #fcfcfc #000000
#000000 0 1;
#X obj 699 870 bng 15 250 50 0 empty empty empty 17 7 0 10 #fcfcfc
#000000 #000000;
#X msg 699 895 0;
#X obj 689 951 delay 5;
#X obj 769 991 tgl 15 0 empty empty empty 17 7 0 10 #fcfcfc #000000
#000000 0 1;
#X obj 769 869 bng 15 250 50 0 empty empty empty 17 7 0 10 #fcfcfc
#000000 #000000;
#X msg 769 894 0;
#X obj 769 803 bng 15 250 50 0 empty empty empty 17 7 0 10 #fcfcfc
#000000 #000000;
#X obj 838 802 bng 15 250 50 0 empty empty empty 17 7 0 10 #fcfcfc
#000000 #000000;
#X obj 759 951 delay 5;
#X obj 838 992 tgl 15 0 empty empty empty 17 7 0 10 #fcfcfc #000000
#000000 0 1;
#X obj 838 870 bng 15 250 50 0 empty empty empty 17 7 0 10 #fcfcfc
#000000 #000000;
#X msg 838 895 0;
#X obj 828 951 delay 5;
#X obj 908 990 tgl 15 0 empty empty empty 17 7 0 10 #fcfcfc #000000
#000000 0 1;
#X obj 908 868 bng 15 250 50 0 empty empty empty 17 7 0 10 #fcfcfc
#000000 #000000;
#X msg 908 893 0;
#X obj 908 802 bng 15 250 50 0 empty empty empty 17 7 0 10 #fcfcfc
#000000 #000000;
#X obj 978 801 bng 15 250 50 0 empty empty empty 17 7 0 10 #fcfcfc
#000000 #000000;
#X obj 898 950 delay 5;
#X obj 978 991 tgl 15 0 empty empty empty 17 7 0 10 #fcfcfc #000000
#000000 0 1;
#X obj 978 869 bng 15 250 50 0 empty empty empty 17 7 0 10 #fcfcfc
#000000 #000000;
#X msg 978 894 0;
#X obj 969 950 delay 5;
#X obj 1048 989 tgl 15 0 empty empty empty 17 7 0 10 #fcfcfc #000000
#000000 0 1;
#X obj 1048 867 bng 15 250 50 0 empty empty empty 17 7 0 10 #fcfcfc
#000000 #000000;
#X msg 1048 892 0;
#X obj 1048 801 bng 15 250 50 0 empty empty empty 17 7 0 10 #fcfcfc
#000000 #000000;
#X obj 1118 800 bng 15 250 50 0 empty empty empty 17 7 0 10 #fcfcfc
#000000 #000000;
#X obj 1039 949 delay 5;
#X obj 1118 990 tgl 15 0 empty empty empty 17 7 0 10 #fcfcfc #000000
#000000 0 1;
#X obj 1118 868 bng 15 250 50 0 empty empty empty 17 7 0 10 #fcfcfc
#000000 #000000;
#X msg 1118 893 0;
#X obj 1109 949 delay 5;
#X obj 1188 989 tgl 15 0 empty empty empty 17 7 0 10 #fcfcfc #000000
#000000 0 1;
#X obj 1188 867 bng 15 250 50 0 empty empty empty 17 7 0 10 #fcfcfc
#000000 #000000;
#X msg 1188 892 0;
#X obj 1188 801 bng 15 250 50 0 empty empty empty 17 7 0 10 #fcfcfc
#000000 #000000;
#X obj 1258 799 bng 15 250 50 0 empty empty empty 17 7 0 10 #fcfcfc
#000000 #000000;
#X obj 1179 949 delay 5;
#X obj 1258 989 tgl 15 0 empty empty empty 17 7 0 10 #fcfcfc #000000
#000000 0 1;
#X obj 1258 867 bng 15 250 50 0 empty empty empty 17 7 0 10 #fcfcfc
#000000 #000000;
#X msg 1258 892 0;
#X obj 1249 948 delay 5;
#X obj 1328 988 tgl 15 0 empty empty empty 17 7 0 10 #fcfcfc #000000
#000000 0 1;
#X obj 1328 866 bng 15 250 50 0 empty empty empty 17 7 0 10 #fcfcfc
#000000 #000000;
#X msg 1328 891 0;
#X obj 1328 800 bng 15 250 50 0 empty empty empty 17 7 0 10 #fcfcfc
#000000 #000000;
#X obj 1397 799 bng 15 250 50 0 empty empty empty 17 7 0 10 #fcfcfc
#000000 #000000;
#X obj 1319 948 delay 5;
#X obj 1397 989 tgl 15 0 empty empty empty 17 7 0 10 #fcfcfc #000000
#000000 0 1;
#X obj 1397 867 bng 15 250 50 0 empty empty empty 17 7 0 10 #fcfcfc
#000000 #000000;
#X msg 1397 892 0;
#X obj 1388 948 delay 5;
#X obj 1467 987 tgl 15 0 empty empty empty 17 7 0 10 #fcfcfc #000000
#000000 0 1;
#X obj 1467 865 bng 15 250 50 0 empty empty empty 17 7 0 10 #fcfcfc
#000000 #000000;
#X msg 1467 890 0;
#X obj 1467 799 bng 15 250 50 0 empty empty empty 17 7 0 10 #fcfcfc
#000000 #000000;
#X obj 1537 798 bng 15 250 50 0 empty empty empty 17 7 0 10 #fcfcfc
#000000 #000000;
#X obj 1458 947 delay 5;
#X obj 1537 988 tgl 15 0 empty empty empty 17 7 0 10 #fcfcfc #000000
#000000 0 1;
#X obj 1537 866 bng 15 250 50 0 empty empty empty 17 7 0 10 #fcfcfc
#000000 #000000;
#X msg 1537 891 0;
#X obj 1528 947 delay 5;
#X obj 1607 986 tgl 15 0 empty empty empty 17 7 0 10 #fcfcfc #000000
#000000 0 1;
#X obj 1607 864 bng 15 250 50 0 empty empty empty 17 7 0 10 #fcfcfc
#000000 #000000;
#X msg 1607 889 0;
#X obj 1607 798 bng 15 250 50 0 empty empty empty 17 7 0 10 #fcfcfc
#000000 #000000;
#X obj 1677 797 bng 15 250 50 0 empty empty empty 17 7 0 10 #fcfcfc
#000000 #000000;
#X obj 1598 946 delay 5;
#X obj 1677 987 tgl 15 0 empty empty empty 17 7 0 10 #fcfcfc #000000
#000000 0 1;
#X obj 1677 865 bng 15 250 50 0 empty empty empty 17 7 0 10 #fcfcfc
#000000 #000000;
#X msg 1677 890 0;
#X obj 1668 946 delay 5;
#X obj 1747 986 tgl 15 0 empty empty empty 17 7 0 10 #fcfcfc #000000
#000000 0 1;
#X obj 1747 864 bng 15 250 50 0 empty empty empty 17 7 0 10 #fcfcfc
#000000 #000000;
#X msg 1747 889 0;
#X obj 1747 798 bng 15 250 50 0 empty empty empty 17 7 0 10 #fcfcfc
#000000 #000000;
#X obj 1817 796 bng 15 250 50 0 empty empty empty 17 7 0 10 #fcfcfc
#000000 #000000;
#X obj 1738 946 delay 5;
#X obj 1817 986 tgl 15 0 empty empty empty 17 7 0 10 #fcfcfc #000000
#000000 0 1;
#X obj 1817 864 bng 15 250 50 0 empty empty empty 17 7 0 10 #fcfcfc
#000000 #000000;
#X msg 1817 889 0;
#X obj 1808 945 delay 5;
#X obj 1887 855 s reset;
#X obj 454 328 * 1000;
#X obj 536 327 * 1000;
#X obj 614 328 * 1000;
#X obj 692 330 * 2000;
#X obj 775 329 * 2000;
#X obj 852 330 * 2000;
#X floatatom 923 175 5 0 0 0 - - - 0;
#X msg 923 552 set \$1;
#X floatatom 924 576 5 0 0 0 - - - 0;
#X obj 930 479 delay 10 1 msec, f 9;
#X obj 947 452 s reset;
#X obj 924 603 s info;
#X floatatom 1003 176 5 0 0 0 - - - 0;
#X msg 1003 553 set \$1;
#X floatatom 1004 577 5 0 0 0 - - - 0;
#X obj 1013 480 delay 10 1 msec, f 9;
#X obj 1027 453 s reset;
#X obj 1004 604 s info;
#X obj 930 214 bng 15 250 50 0 empty empty empty 17 7 0 10 #fcfcfc
#000000 #000000;
#X obj 962 213 r DM;
#X obj 1013 213 bng 15 250 50 0 empty empty empty 17 7 0 10 #fcfcfc
#000000 #000000;
#X obj 1045 212 r DM;
#X floatatom 1082 176 5 0 0 0 - - - 0;
#X msg 1082 553 set \$1;
#X floatatom 1083 577 5 0 0 0 - - - 0;
#X obj 1089 480 delay 10 1 msec, f 9;
#X obj 1106 453 s reset;
#X obj 1083 604 s info;
#X obj 1090 215 bng 15 250 50 0 empty empty empty 17 7 0 10 #fcfcfc
#000000 #000000;
#X obj 1121 214 r DM;
#X floatatom 1013 358 5 0 0 0 - - - 0;
#X floatatom 930 355 5 0 0 0 - - - 0;
#X floatatom 1089 359 8 0 0 0 - - - 0;
#X floatatom 1090 246 5 0 0 0 - - - 0;
#X obj 1090 410 delay 10 1 msec, f 8;
#X floatatom 930 244 5 0 0 0 - - - 0;
#X floatatom 1013 243 5 0 0 0 - - - 0;
#X obj 930 410 delay 10 1 msec, f 8;
#X obj 1013 409 delay 10 1 msec, f 8;
#X floatatom 1162 177 5 0 0 0 - - - 0;
#X msg 1162 554 set \$1;
#X floatatom 1163 578 5 0 0 0 - - - 0;
#X obj 1169 481 delay 10 1 msec, f 9;
#X obj 1186 454 s reset;
#X obj 1163 605 s info;
#X floatatom 1241 178 5 0 0 0 - - - 0;
#X msg 1241 555 set \$1;
#X floatatom 1242 579 5 0 0 0 - - - 0;
#X obj 1251 482 delay 10 1 msec, f 9;
#X obj 1265 455 s reset;
#X obj 1242 606 s info;
#X obj 1169 216 bng 15 250 50 0 empty empty empty 17 7 0 10 #fcfcfc
#000000 #000000;
#X obj 1201 215 r DM;
#X obj 1251 215 bng 15 250 50 0 empty empty empty 17 7 0 10 #fcfcfc
#000000 #000000;
#X obj 1283 214 r DM;
#X floatatom 1321 178 5 0 0 0 - - - 0;
#X msg 1321 555 set \$1;
#X floatatom 1322 579 5 0 0 0 - - - 0;
#X obj 1328 482 delay 10 1 msec, f 9;
#X obj 1345 455 s reset;
#X obj 1322 606 s info;
#X obj 1329 217 bng 15 250 50 0 empty empty empty 17 7 0 10 #fcfcfc
#000000 #000000;
#X obj 1360 216 r DM;
#X floatatom 1251 360 8 0 0 0 - - - 0;
#X floatatom 1170 359 7 0 0 0 - - - 0;
#X floatatom 1328 361 8 0 0 0 - - - 0;
#X floatatom 1329 248 5 0 0 0 - - - 0;
#X obj 1329 412 delay 10 1 msec, f 8;
#X floatatom 1169 246 5 0 0 0 - - - 0;
#X floatatom 1251 245 5 0 0 0 - - - 0;
#X obj 1169 412 delay 10 1 msec, f 8;
#X obj 1251 411 delay 10 1 msec, f 8;
#X obj 930 331 * 3000;
#X obj 1013 330 * 3000;
#X obj 1090 331 * 3000;
#X obj 1170 333 * 4000;
#X obj 1251 332 * 4000;
#X obj 1329 333 * 4000;
#X floatatom 1400 179 5 0 0 0 - - - 0;
#X msg 1400 556 set \$1;
#X floatatom 1401 580 5 0 0 0 - - - 0;
#X obj 1407 483 delay 10 1 msec, f 9;
#X obj 1424 456 s reset;
#X obj 1401 607 s info;
#X floatatom 1480 180 5 0 0 0 - - - 0;
#X msg 1480 557 set \$1;
#X floatatom 1481 581 5 0 0 0 - - - 0;
#X obj 1490 484 delay 10 1 msec, f 9;
#X obj 1504 457 s reset;
#X obj 1481 608 s info;
#X obj 1407 218 bng 15 250 50 0 empty empty empty 17 7 0 10 #fcfcfc
#000000 #000000;
#X obj 1439 217 r DM;
#X obj 1490 217 bng 15 250 50 0 empty empty empty 17 7 0 10 #fcfcfc
#000000 #000000;
#X obj 1522 216 r DM;
#X floatatom 1559 180 5 0 0 0 - - - 0;
#X msg 1559 557 set \$1;
#X floatatom 1560 581 5 0 0 0 - - - 0;
#X obj 1566 484 delay 10 1 msec, f 9;
#X obj 1583 457 s reset;
#X obj 1560 608 s info;
#X obj 1567 219 bng 15 250 50 0 empty empty empty 17 7 0 10 #fcfcfc
#000000 #000000;
#X obj 1598 218 r DM;
#X floatatom 1490 362 5 0 0 0 - - - 0;
#X floatatom 1407 363 5 0 0 0 - - - 0;
#X floatatom 1566 363 8 0 0 0 - - - 0;
#X floatatom 1567 250 5 0 0 0 - - - 0;
#X obj 1567 414 delay 10 1 msec, f 8;
#X floatatom 1407 248 5 0 0 0 - - - 0;
#X floatatom 1490 247 5 0 0 0 - - - 0;
#X obj 1407 414 delay 10 1 msec, f 8;
#X obj 1490 413 delay 10 1 msec, f 8;
#X floatatom 1639 181 5 0 0 0 - - - 0;
#X msg 1639 558 set \$1;
#X floatatom 1640 582 5 0 0 0 - - - 0;
#X obj 1646 485 delay 10 1 msec, f 9;
#X obj 1663 458 s reset;
#X obj 1640 609 s info;
#X floatatom 1718 182 5 0 0 0 - - - 0;
#X msg 1718 559 set \$1;
#X floatatom 1719 583 5 0 0 0 - - - 0;
#X obj 1728 486 delay 10 1 msec, f 9;
#X obj 1742 459 s reset;
#X obj 1719 610 s info;
#X obj 1646 220 bng 15 250 50 0 empty empty empty 17 7 0 10 #fcfcfc
#000000 #000000;
#X obj 1678 219 r DM;
#X obj 1728 219 bng 15 250 50 0 empty empty empty 17 7 0 10 #fcfcfc
#000000 #000000;
#X obj 1760 218 r DM;
#X floatatom 1797 182 5 0 0 0 - - - 0;
#X msg 1797 559 set \$1;
#X floatatom 1798 583 5 0 0 0 - - - 0;
#X obj 1804 486 delay 10 1 msec, f 9;
#X obj 1821 459 s reset;
#X obj 1798 610 s info;
#X obj 1805 221 bng 15 250 50 0 empty empty empty 17 7 0 10 #fcfcfc
#000000 #000000;
#X obj 1836 220 r DM;
#X floatatom 1728 364 8 0 0 0 - - - 0;
#X floatatom 1646 365 7 0 0 0 - - - 0;
#X floatatom 1804 365 8 0 0 0 - - - 0;
#X floatatom 1805 252 5 0 0 0 - - - 0;
#X obj 1805 416 delay 10 1 msec, f 8;
#X floatatom 1646 250 5 0 0 0 - - - 0;
#X floatatom 1728 249 5 0 0 0 - - - 0;
#X obj 1646 416 delay 10 1 msec, f 8;
#X obj 1728 415 delay 10 1 msec, f 8;
#X obj 1407 335 * 5000;
#X obj 1490 334 * 5000;
#X obj 1567 335 * 5000;
#X obj 1649 337 * 6000;
#X obj 1728 336 * 6000;
#X obj 1805 337 * 6000;
#X floatatom 1877 184 5 0 0 0 - - - 0;
#X msg 1877 561 set \$1;
#X floatatom 1878 585 5 0 0 0 - - - 0;
#X obj 1884 488 delay 10 1 msec, f 9;
#X obj 1901 461 s reset;
#X obj 1878 612 s info;
#X floatatom 1956 185 5 0 0 0 - - - 0;
#X msg 1956 562 set \$1;
#X floatatom 1957 586 5 0 0 0 - - - 0;
#X obj 1966 489 delay 10 1 msec, f 9;
#X obj 1980 462 s reset;
#X obj 1957 613 s info;
#X obj 1884 223 bng 15 250 50 0 empty empty empty 17 7 0 10 #fcfcfc
#000000 #000000;
#X obj 1916 222 r DM;
#X obj 1966 222 bng 15 250 50 0 empty empty empty 17 7 0 10 #fcfcfc
#000000 #000000;
#X obj 1998 221 r DM;
#X floatatom 2035 185 5 0 0 0 - - - 0;
#X msg 2035 562 set \$1;
#X floatatom 2036 586 5 0 0 0 - - - 0;
#X obj 2042 489 delay 10 1 msec, f 9;
#X obj 2058 462 s reset;
#X obj 2036 613 s info;
#X obj 2043 224 bng 15 250 50 0 empty empty empty 17 7 0 10 #fcfcfc
#000000 #000000;
#X obj 2074 223 r DM;
#X floatatom 1966 367 5 0 0 0 - - - 0;
#X floatatom 1884 368 5 0 0 0 - - - 0;
#X floatatom 2042 368 8 0 0 0 - - - 0;
#X floatatom 2043 255 5 0 0 0 - - - 0;
#X obj 2042 418 delay 10 1 msec, f 8;
#X floatatom 1884 253 5 0 0 0 - - - 0;
#X floatatom 1966 252 5 0 0 0 - - - 0;
#X obj 1884 419 delay 10 1 msec, f 8;
#X obj 1966 418 delay 10 1 msec, f 8;
#X floatatom 2115 186 5 0 0 0 - - - 0;
#X msg 2115 563 set \$1;
#X floatatom 2116 587 5 0 0 0 - - - 0;
#X obj 2122 490 delay 10 1 msec, f 9;
#X obj 2139 463 s reset;
#X obj 2116 614 s info;
#X floatatom 2194 187 5 0 0 0 - - - 0;
#X msg 2194 564 set \$1;
#X floatatom 2195 588 5 0 0 0 - - - 0;
#X obj 2204 491 delay 10 1 msec, f 9;
#X obj 2218 464 s reset;
#X obj 2195 615 s info;
#X obj 2122 225 bng 15 250 50 0 empty empty empty 17 7 0 10 #fcfcfc
#000000 #000000;
#X obj 2154 224 r DM;
#X obj 2204 224 bng 15 250 50 0 empty empty empty 17 7 0 10 #fcfcfc
#000000 #000000;
#X obj 2236 223 r DM;
#X floatatom 2274 187 5 0 0 0 - - - 0;
#X msg 2274 564 set \$1;
#X floatatom 2275 588 5 0 0 0 - - - 0;
#X obj 2281 491 delay 10 1 msec, f 9;
#X obj 2298 464 s reset;
#X obj 2275 615 s info;
#X obj 2282 226 bng 15 250 50 0 empty empty empty 17 7 0 10 #fcfcfc
#000000 #000000;
#X obj 2313 225 r DM;
#X floatatom 2204 369 8 0 0 0 - - - 0;
#X floatatom 2122 370 7 0 0 0 - - - 0;
#X floatatom 2281 370 8 0 0 0 - - - 0;
#X floatatom 2282 257 5 0 0 0 - - - 0;
#X obj 2281 420 delay 10 1 msec, f 8;
#X floatatom 2122 255 5 0 0 0 - - - 0;
#X floatatom 2204 254 5 0 0 0 - - - 0;
#X obj 2122 420 delay 10 1 msec, f 8;
#X obj 2204 419 delay 10 1 msec, f 8;
#X obj 1884 340 * 7000;
#X obj 1966 339 * 7000;
#X obj 2043 340 * 7000;
#X obj 2125 342 * 8000;
#X obj 2204 341 * 8000;
#X obj 2282 342 * 8000;
#X floatatom 2353 187 5 0 0 0 - - - 0;
#X msg 2353 564 set \$1;
#X floatatom 2354 588 5 0 0 0 - - - 0;
#X obj 2360 491 delay 10 1 msec, f 9;
#X obj 2377 464 s reset;
#X obj 2354 615 s info;
#X floatatom 2433 188 5 0 0 0 - - - 0;
#X msg 2433 565 set \$1;
#X floatatom 2434 589 5 0 0 0 - - - 0;
#X obj 2443 492 delay 10 1 msec, f 9;
#X obj 2457 465 s reset;
#X obj 2434 616 s info;
#X obj 2360 226 bng 15 250 50 0 empty empty empty 17 7 0 10 #fcfcfc
#000000 #000000;
#X obj 2392 225 r DM;
#X obj 2443 225 bng 15 250 50 0 empty empty empty 17 7 0 10 #fcfcfc
#000000 #000000;
#X obj 2475 224 r DM;
#X floatatom 2512 188 5 0 0 0 - - - 0;
#X msg 2512 565 set \$1;
#X floatatom 2513 589 5 0 0 0 - - - 0;
#X obj 2519 492 delay 10 1 msec, f 9;
#X obj 2535 465 s reset;
#X obj 2513 616 s info;
#X obj 2520 227 bng 15 250 50 0 empty empty empty 17 7 0 10 #fcfcfc
#000000 #000000;
#X obj 2551 226 r DM;
#X floatatom 2443 370 5 0 0 0 - - - 0;
#X floatatom 2360 371 5 0 0 0 - - - 0;
#X floatatom 2519 371 8 0 0 0 - - - 0;
#X floatatom 2520 258 5 0 0 0 - - - 0;
#X obj 2519 421 delay 10 1 msec, f 8;
#X floatatom 2360 256 5 0 0 0 - - - 0;
#X floatatom 2443 255 5 0 0 0 - - - 0;
#X obj 2360 421 delay 10 1 msec, f 8;
#X obj 2443 420 delay 10 1 msec, f 8;
#X floatatom 2591 189 5 0 0 0 - - - 0;
#X msg 2591 566 set \$1;
#X floatatom 2592 590 5 0 0 0 - - - 0;
#X obj 2598 493 delay 10 1 msec, f 9;
#X obj 2615 466 s reset;
#X obj 2592 617 s info;
#X floatatom 2671 190 5 0 0 0 - - - 0;
#X msg 2671 567 set \$1;
#X floatatom 2672 591 5 0 0 0 - - - 0;
#X obj 2681 494 delay 10 1 msec, f 9;
#X obj 2695 467 s reset;
#X obj 2672 618 s info;
#X obj 2598 228 bng 15 250 50 0 empty empty empty 17 7 0 10 #fcfcfc
#000000 #000000;
#X obj 2630 227 r DM;
#X obj 2681 227 bng 15 250 50 0 empty empty empty 17 7 0 10 #fcfcfc
#000000 #000000;
#X obj 2713 226 r DM;
#X floatatom 2750 190 5 0 0 0 - - - 0;
#X msg 2750 567 set \$1;
#X floatatom 2751 591 5 0 0 0 - - - 0;
#X obj 2757 494 delay 10 1 msec, f 9;
#X obj 2774 467 s reset;
#X obj 2751 618 s info;
#X obj 2758 229 bng 15 250 50 0 empty empty empty 17 7 0 10 #fcfcfc
#000000 #000000;
#X obj 2789 228 r DM;
#X floatatom 2681 372 8 0 0 0 - - - 0;
#X floatatom 2599 372 7 0 0 0 - - - 0;
#X floatatom 2757 373 8 0 0 0 - - - 0;
#X floatatom 2758 260 5 0 0 0 - - - 0;
#X obj 2757 423 delay 10 1 msec, f 8;
#X floatatom 2598 258 5 0 0 0 - - - 0;
#X floatatom 2681 257 5 0 0 0 - - - 0;
#X obj 2598 423 delay 10 1 msec, f 8;
#X obj 2681 422 delay 10 1 msec, f 8;
#X obj 2360 343 * 9000;
#X obj 2443 342 * 9000;
#X obj 2520 343 * 9000;
#X obj 2601 345 * 10000;
#X obj 2681 344 * 10000;
#X obj 2758 345 * 10000;
#X floatatom 2829 190 5 0 0 0 - - - 0;
#X msg 2829 567 set \$1;
#X floatatom 2830 591 5 0 0 0 - - - 0;
#X obj 2836 494 delay 10 1 msec, f 9;
#X obj 2853 467 s reset;
#X obj 2830 618 s info;
#X floatatom 2909 191 5 0 0 0 - - - 0;
#X msg 2909 568 set \$1;
#X floatatom 2910 592 5 0 0 0 - - - 0;
#X obj 2919 495 delay 10 1 msec, f 9;
#X obj 2933 468 s reset;
#X obj 2910 619 s info;
#X obj 2836 229 bng 15 250 50 0 empty empty empty 17 7 0 10 #fcfcfc
#000000 #000000;
#X obj 2868 228 r DM;
#X obj 2919 228 bng 15 250 50 0 empty empty empty 17 7 0 10 #fcfcfc
#000000 #000000;
#X obj 2951 227 r DM;
#X floatatom 2989 191 5 0 0 0 - - - 0;
#X msg 2989 568 set \$1;
#X floatatom 2990 592 5 0 0 0 - - - 0;
#X obj 2996 495 delay 10 1 msec, f 9;
#X obj 3012 468 s reset;
#X obj 2990 619 s info;
#X obj 2997 230 bng 15 250 50 0 empty empty empty 17 7 0 10 #fcfcfc
#000000 #000000;
#X obj 3028 229 r DM;
#X floatatom 2919 373 5 0 0 0 - - - 0;
#X floatatom 2836 374 5 0 0 0 - - - 0;
#X floatatom 2996 374 8 0 0 0 - - - 0;
#X floatatom 2997 261 5 0 0 0 - - - 0;
#X obj 2996 424 delay 10 1 msec, f 8;
#X floatatom 2836 259 5 0 0 0 - - - 0;
#X floatatom 2919 258 5 0 0 0 - - - 0;
#X obj 2836 424 delay 10 1 msec, f 8;
#X obj 2919 423 delay 10 1 msec, f 8;
#X floatatom 3068 192 5 0 0 0 - - - 0;
#X msg 3068 569 set \$1;
#X floatatom 3069 593 5 0 0 0 - - - 0;
#X obj 3075 496 delay 10 1 msec, f 9;
#X obj 3092 469 s reset;
#X obj 3069 620 s info;
#X floatatom 3147 193 5 0 0 0 - - - 0;
#X msg 3147 570 set \$1;
#X floatatom 3148 594 5 0 0 0 - - - 0;
#X obj 3157 497 delay 10 1 msec, f 9;
#X obj 3171 470 s reset;
#X obj 3148 621 s info;
#X obj 3075 231 bng 15 250 50 0 empty empty empty 17 7 0 10 #fcfcfc
#000000 #000000;
#X obj 3107 230 r DM;
#X obj 3157 230 bng 15 250 50 0 empty empty empty 17 7 0 10 #fcfcfc
#000000 #000000;
#X obj 3189 229 r DM;
#X floatatom 3226 193 5 0 0 0 - - - 0;
#X msg 3226 570 set \$1;
#X floatatom 3227 594 5 0 0 0 - - - 0;
#X obj 3233 497 delay 10 1 msec, f 9;
#X obj 3250 470 s reset;
#X obj 3227 621 s info;
#X obj 3234 232 bng 15 250 50 0 empty empty empty 17 7 0 10 #fcfcfc
#000000 #000000;
#X obj 3265 231 r DM;
#X floatatom 3158 375 8 0 0 0 - - - 0;
#X floatatom 3075 376 7 0 0 0 - - - 0;
#X floatatom 3233 376 8 0 0 0 - - - 0;
#X floatatom 3234 263 5 0 0 0 - - - 0;
#X obj 3233 426 delay 10 1 msec, f 8;
#X floatatom 3075 261 5 0 0 0 - - - 0;
#X floatatom 3157 260 5 0 0 0 - - - 0;
#X obj 3075 426 delay 10 1 msec, f 8;
#X obj 3157 425 delay 10 1 msec, f 8;
#X obj 2836 346 * 11000;
#X obj 2919 345 * 11000;
#X obj 2997 346 * 11000;
#X obj 3078 348 * 12000;
#X obj 3157 347 * 12000;
#X obj 3234 348 * 12000;
#X floatatom 3306 190 5 0 0 0 - - - 0;
#X msg 3306 567 set \$1;
#X floatatom 3307 591 5 0 0 0 - - - 0;
#X obj 3313 494 delay 10 1 msec, f 9;
#X obj 3330 467 s reset;
#X obj 3307 618 s info;
#X floatatom 3386 191 5 0 0 0 - - - 0;
#X msg 3386 568 set \$1;
#X floatatom 3387 592 5 0 0 0 - - - 0;
#X obj 3396 495 delay 10 1 msec, f 9;
#X obj 3410 468 s reset;
#X obj 3387 619 s info;
#X obj 3313 229 bng 15 250 50 0 empty empty empty 17 7 0 10 #fcfcfc
#000000 #000000;
#X obj 3345 228 r DM;
#X obj 3396 228 bng 15 250 50 0 empty empty empty 17 7 0 10 #fcfcfc
#000000 #000000;
#X obj 3428 227 r DM;
#X floatatom 3465 191 5 0 0 0 - - - 0;
#X msg 3465 568 set \$1;
#X floatatom 3466 592 5 0 0 0 - - - 0;
#X obj 3472 495 delay 10 1 msec, f 9;
#X obj 3489 468 s reset;
#X obj 3466 619 s info;
#X obj 3473 230 bng 15 250 50 0 empty empty empty 17 7 0 10 #fcfcfc
#000000 #000000;
#X obj 3504 229 r DM;
#X floatatom 3396 373 8 0 0 0 - - - 0;
#X floatatom 3313 374 7 0 0 0 - - - 0;
#X floatatom 3472 374 8 0 0 0 - - - 0;
#X floatatom 3473 261 5 0 0 0 - - - 0;
#X obj 3472 424 delay 10 1 msec, f 8;
#X floatatom 3313 259 5 0 0 0 - - - 0;
#X floatatom 3396 258 5 0 0 0 - - - 0;
#X obj 3313 424 delay 10 1 msec, f 8;
#X obj 3396 423 delay 10 1 msec, f 8;
#X obj 3316 346 * 13000;
#X obj 3396 345 * 13000;
#X obj 3473 346 * 13000;
#X text 3546 442 comment;
#X floatatom 3546 192 5 0 0 0 - - - 0;
#X msg 3546 569 set \$1;
#X floatatom 3547 593 5 0 0 0 - - - 0;
#X obj 3553 496 delay 10 1 msec, f 9;
#X obj 3570 469 s reset;
#X obj 3547 620 s info;
#X obj 3554 231 bng 15 250 50 0 empty empty empty 17 7 0 10 #fcfcfc
#000000 #000000;
#X obj 3585 230 r DM;
#X floatatom 3553 375 8 0 0 0 - - - 0;
#X floatatom 3554 262 5 0 0 0 - - - 0;
#X obj 3553 425 delay 10 1 msec, f 8;
#X obj 3554 347 * 14000;
#X obj 349 1019 s Baum3;
#X obj 419 1020 s Baum4;
#X obj 489 1018 s Baum5;
#X obj 559 1019 s Baum6;
#X obj 629 1018 s Baum7;
#X obj 699 1018 s Baum8;
#X obj 769 1017 s Baum9;
#X obj 838 1018 s Baum10;
#X obj 908 1016 s Baum11;
#X obj 978 1016 s Baum12;
#X obj 1048 1015 s Baum13;
#X obj 1118 1016 s Baum14;
#X obj 1188 1015 s Baum15;
#X obj 1258 1015 s Baum16;
#X obj 1328 1014 s Baum17;
#X obj 1397 1015 s Baum18;
#X obj 1467 1013 s Baum19;
#X obj 1537 1014 s Baum20;
#X obj 1607 1012 s Baum21;
#X obj 1677 1013 s Baum22;
#X obj 1817 1012 s Baum24;
#X obj 1747 1012 s Baum23;
#X text 351 -15 Dieses Patch liest Listen aus die als Bewegungsanweisungen
der Signale in der Baumgruppe funktionieren. Die Listen werden in Gruppen
von 3 Zahlen angesteuert \, diese werden durchgeschaltet und beim Einsatz
der nächsten Dreiergruppe werden die Signale zu den vorherigen Bäumen
wieder ausgeschaltet. Es sendet die Signale dann zu pd_dacflaeche und
schaltet die Kanäle des DAC unter nutzung der Line Funktion um. Die
Delayzeiten werden von PD_flaechengruppen moduliert um organischere
Bewegungen zu ermöglichen;
#X obj 1944 888 s flaecherestart;
#X text -210 476 Bufferdelay nach reset bevor Liste weitergeleitet
wird;
#X text -213 396 s reset stellt sicher \, dass alle nicht-angesteuerten
Schalter aus sind indem es für 10 msec alle Schalter ausschalter ->
Durch LINE in pd_dacflaeche keine reale wirkung;
#X text 11 239 UI Delayfaktor;
#X text -214 328 Delay blockiert Signalfluss um die verschiedenen Delaygruppen
einzuteilen und Bewegung durch zeitversetzten befehl an den DAC zum
öffnen und schließen der Ausgänge zu gewährleisten;
#X text -208 146 21 Baeume -> Liste mit Lautsprechernummern wird entpackt
;
#X text -213 763 Zeitlich getrennte Signale kommen ein und steuern
jeweils einen der Bäume an. -> Vor jeder gruppe wird über r reset
das Schaltfeld einmal ganz ausgeschaltet;
#X text -213 991 Schalter sind Befehle für Lautstärkendurchlass DAC
1-24 - 3sec ramp up \, bei schalter aus 3 sec ramp down;
#X obj 211 638 r reset;
#X msg 211 666 0;
#X obj 211 702 s reset0;
#X obj 210 845 r reset0;
#X obj 279 845 r reset0;
#X obj 349 844 r reset0;
#X obj 419 844 r reset0;
#X obj 489 843 r reset0;
#X obj 560 843 r reset0;
#X obj 629 843 r reset0;
#X obj 699 842 r reset0;
#X obj 769 843 r reset0;
#X obj 838 842 r reset0;
#X obj 908 841 r reset0;
#X obj 978 841 r reset0;
#X obj 1048 840 r reset0;
#X obj 1118 840 r reset0;
#X obj 1188 840 r reset0;
#X obj 1258 839 r reset0;
#X obj 1328 839 r reset0;
#X obj 1397 839 r reset0;
#X obj 1467 838 r reset0;
#X obj 1537 838 r reset0;
#X obj 1607 837 r reset0;
#X obj 1677 837 r reset0;
#X obj 1747 837 r reset0;
#X obj 1817 836 r reset0;
#X obj 1887 807 delay 5;
#X obj 1944 833 delay 5;
#X obj 1961 791 bng 30 250 50 0 empty empty empty 17 7 0 10 #fcfcfc
#000000 #000000;
#X obj 1887 786 bng 15 250 50 0 empty empty empty 17 7 0 10 #fcfcfc
#000000 #000000;
#X obj 217 382 bng 15 250 50 0 empty empty empty 17 7 0 10 #fcfcfc
#000000 #000000;
#X obj 299 383 bng 15 250 50 0 empty empty empty 17 7 0 10 #fcfcfc
#000000 #000000;
#X obj 375 381 bng 15 250 50 0 empty empty empty 17 7 0 10 #fcfcfc
#000000 #000000;
#X obj 454 383 bng 15 250 50 0 empty empty empty 17 7 0 10 #fcfcfc
#000000 #000000;
#X obj 536 381 bng 15 250 50 0 empty empty empty 17 7 0 10 #fcfcfc
#000000 #000000;
#X obj 614 381 bng 15 250 50 0 empty empty empty 17 7 0 10 #fcfcfc
#000000 #000000;
#X obj 692 386 bng 15 250 50 0 empty empty empty 17 7 0 10 #fcfcfc
#000000 #000000;
#X obj 776 384 bng 15 250 50 0 empty empty empty 17 7 0 10 #fcfcfc
#000000 #000000;
#X obj 853 386 bng 15 250 50 0 empty empty empty 17 7 0 10 #fcfcfc
#000000 #000000;
#X obj 929 384 bng 15 250 50 0 empty empty empty 17 7 0 10 #fcfcfc
#000000 #000000;
#X obj 1014 385 bng 15 250 50 0 empty empty empty 17 7 0 10 #fcfcfc
#000000 #000000;
#X obj 1091 384 bng 15 250 50 0 empty empty empty 17 7 0 10 #fcfcfc
#000000 #000000;
#X obj 1170 387 bng 15 250 50 0 empty empty empty 17 7 0 10 #fcfcfc
#000000 #000000;
#X obj 1251 387 bng 15 250 50 0 empty empty empty 17 7 0 10 #fcfcfc
#000000 #000000;
#X obj 1329 388 bng 15 250 50 0 empty empty empty 17 7 0 10 #fcfcfc
#000000 #000000;
#X obj 1410 390 bng 15 250 50 0 empty empty empty 17 7 0 10 #fcfcfc
#000000 #000000;
#X obj 1885 395 bng 15 250 50 0 empty empty empty 17 7 0 10 #fcfcfc
#000000 #000000;
#X obj 1489 390 bng 15 250 50 0 empty empty empty 17 7 0 10 #fcfcfc
#000000 #000000;
#X obj 1567 391 bng 15 250 50 0 empty empty empty 17 7 0 10 #fcfcfc
#000000 #000000;
#X obj 1645 393 bng 15 250 50 0 empty empty empty 17 7 0 10 #fcfcfc
#000000 #000000;
#X obj 1728 392 bng 15 250 50 0 empty empty empty 17 7 0 10 #fcfcfc
#000000 #000000;
#X obj 1806 393 bng 15 250 50 0 empty empty empty 17 7 0 10 #fcfcfc
#000000 #000000;
#X obj 1968 394 bng 15 250 50 0 empty empty empty 17 7 0 10 #fcfcfc
#000000 #000000;
#X obj 2043 395 bng 15 250 50 0 empty empty empty 17 7 0 10 #fcfcfc
#000000 #000000;
#X obj 2125 397 bng 15 250 50 0 empty empty empty 17 7 0 10 #fcfcfc
#000000 #000000;
#X obj 2205 396 bng 15 250 50 0 empty empty empty 17 7 0 10 #fcfcfc
#000000 #000000;
#X obj 2282 396 bng 15 250 50 0 empty empty empty 17 7 0 10 #fcfcfc
#000000 #000000;
#X obj 2362 398 bng 15 250 50 0 empty empty empty 17 7 0 10 #fcfcfc
#000000 #000000;
#X obj 2443 396 bng 15 250 50 0 empty empty empty 17 7 0 10 #fcfcfc
#000000 #000000;
#X obj 2523 397 bng 15 250 50 0 empty empty empty 17 7 0 10 #fcfcfc
#000000 #000000;
#X obj 2599 398 bng 15 250 50 0 empty empty empty 17 7 0 10 #fcfcfc
#000000 #000000;
#X obj 2682 399 bng 15 250 50 0 empty empty empty 17 7 0 10 #fcfcfc
#000000 #000000;
#X obj 2757 399 bng 15 250 50 0 empty empty empty 17 7 0 10 #fcfcfc
#000000 #000000;
#X obj 2837 403 bng 15 250 50 0 empty empty empty 17 7 0 10 #fcfcfc
#000000 #000000;
#X obj 2920 401 bng 15 250 50 0 empty empty empty 17 7 0 10 #fcfcfc
#000000 #000000;
#X obj 2996 398 bng 15 250 50 0 empty empty empty 17 7 0 10 #fcfcfc
#000000 #000000;
#X obj 3075 403 bng 15 250 50 0 empty empty empty 17 7 0 10 #fcfcfc
#000000 #000000;
#X obj 3158 402 bng 15 250 50 0 empty empty empty 17 7 0 10 #fcfcfc
#000000 #000000;
#X obj 3233 403 bng 15 250 50 0 empty empty empty 17 7 0 10 #fcfcfc
#000000 #000000;
#X obj 3314 401 bng 15 250 50 0 empty empty empty 17 7 0 10 #fcfcfc
#000000 #000000;
#X obj 3396 400 bng 15 250 50 0 empty empty empty 17 7 0 10 #fcfcfc
#000000 #000000;
#X obj 3472 400 bng 15 250 50 0 empty empty empty 17 7 0 10 #fcfcfc
#000000 #000000;
#X obj 3554 405 bng 15 250 50 0 empty empty empty 17 7 0 10 #fcfcfc
#000000 #000000;
#X obj 216 327 * 400;
#X obj 298 327 * 400;
#X obj 375 327 * 400;
#X obj 150 241 s DM;
#X msg 155 211 5;
#X obj 145 184 r START;
#X connect 1 0 0 0;
#X connect 2 0 5 0;
#X connect 2 1 6 0;
#X connect 2 2 42 0;
#X connect 2 3 43 0;
#X connect 2 4 128 0;
#X connect 2 5 129 0;
#X connect 2 6 138 0;
#X connect 2 7 139 0;
#X connect 2 8 148 0;
#X connect 2 9 149 0;
#X connect 2 10 158 0;
#X connect 2 11 159 0;
#X connect 2 12 168 0;
#X connect 2 13 169 0;
#X connect 2 14 178 0;
#X connect 2 15 179 0;
#X connect 2 16 188 0;
#X connect 2 17 189 0;
#X connect 2 18 198 0;
#X connect 2 19 199 0;
#X connect 2 20 208 0;
#X connect 2 21 209 0;
#X connect 2 22 218 0;
#X connect 2 23 219 0;
#X connect 2 24 701 0;
#X connect 2 24 702 0;
#X connect 3 0 4 0;
#X connect 4 0 1 0;
#X connect 5 0 8 0;
#X connect 6 0 17 0;
#X connect 7 0 9 0;
#X connect 7 0 27 0;
#X connect 8 0 1 0;
#X connect 9 0 10 0;
#X connect 10 0 19 0;
#X connect 11 0 10 0;
#X connect 13 0 49 0;
#X connect 14 0 18 0;
#X connect 15 0 16 0;
#X connect 16 0 14 0;
#X connect 17 0 14 0;
#X connect 20 0 2 0;
#X connect 21 0 29 0;
#X connect 21 0 22 0;
#X connect 22 0 23 0;
#X connect 23 0 26 0;
#X connect 24 0 23 0;
#X connect 27 0 55 0;
#X connect 28 0 55 0;
#X connect 29 0 56 0;
#X connect 30 0 56 0;
#X connect 31 0 37 0;
#X connect 31 0 32 0;
#X connect 32 0 33 0;
#X connect 33 0 36 0;
#X connect 34 0 33 0;
#X connect 37 0 53 0;
#X connect 38 0 53 0;
#X connect 39 0 641 0;
#X connect 40 0 41 0;
#X connect 41 0 39 0;
#X connect 42 0 44 0;
#X connect 43 0 48 0;
#X connect 44 0 39 0;
#X connect 45 0 642 0;
#X connect 46 0 47 0;
#X connect 47 0 45 0;
#X connect 48 0 45 0;
#X connect 49 0 7 0;
#X connect 49 1 21 0;
#X connect 49 2 31 0;
#X connect 49 3 57 0;
#X connect 49 4 63 0;
#X connect 49 5 73 0;
#X connect 49 6 92 0;
#X connect 49 7 98 0;
#X connect 49 8 108 0;
#X connect 49 9 232 0;
#X connect 49 10 238 0;
#X connect 49 11 248 0;
#X connect 49 12 265 0;
#X connect 49 13 271 0;
#X connect 49 14 281 0;
#X connect 49 15 304 0;
#X connect 49 16 310 0;
#X connect 49 17 320 0;
#X connect 49 18 337 0;
#X connect 49 19 343 0;
#X connect 49 20 353 0;
#X connect 49 21 376 0;
#X connect 49 22 382 0;
#X connect 49 23 392 0;
#X connect 49 24 409 0;
#X connect 49 25 415 0;
#X connect 49 26 425 0;
#X connect 49 27 448 0;
#X connect 49 28 454 0;
#X connect 49 29 464 0;
#X connect 49 30 481 0;
#X connect 49 31 487 0;
#X connect 49 32 497 0;
#X connect 49 33 520 0;
#X connect 49 34 526 0;
#X connect 49 35 536 0;
#X connect 49 36 553 0;
#X connect 49 37 559 0;
#X connect 49 38 569 0;
#X connect 49 39 592 0;
#X connect 49 40 598 0;
#X connect 49 41 608 0;
#X connect 49 42 629 0;
#X connect 50 0 704 0;
#X connect 50 0 91 1;
#X connect 51 0 703 0;
#X connect 51 0 90 1;
#X connect 52 0 705 0;
#X connect 52 0 54 1;
#X connect 53 0 748 0;
#X connect 54 0 34 0;
#X connect 54 0 35 0;
#X connect 55 0 746 0;
#X connect 56 0 747 0;
#X connect 57 0 69 0;
#X connect 57 0 58 0;
#X connect 58 0 59 0;
#X connect 59 0 62 0;
#X connect 60 0 59 0;
#X connect 63 0 71 0;
#X connect 63 0 64 0;
#X connect 64 0 65 0;
#X connect 65 0 68 0;
#X connect 66 0 65 0;
#X connect 69 0 86 0;
#X connect 70 0 86 0;
#X connect 71 0 87 0;
#X connect 72 0 87 0;
#X connect 73 0 79 0;
#X connect 73 0 74 0;
#X connect 74 0 75 0;
#X connect 75 0 78 0;
#X connect 76 0 75 0;
#X connect 79 0 84 0;
#X connect 80 0 84 0;
#X connect 81 0 707 0;
#X connect 81 0 89 1;
#X connect 82 0 706 0;
#X connect 82 0 88 1;
#X connect 83 0 708 0;
#X connect 83 0 85 1;
#X connect 84 0 228 0;
#X connect 85 0 76 0;
#X connect 85 0 77 0;
#X connect 86 0 226 0;
#X connect 87 0 227 0;
#X connect 88 0 60 0;
#X connect 88 0 61 0;
#X connect 89 0 66 0;
#X connect 89 0 67 0;
#X connect 90 0 11 0;
#X connect 90 0 12 0;
#X connect 91 0 24 0;
#X connect 91 0 25 0;
#X connect 92 0 93 0;
#X connect 92 0 104 0;
#X connect 93 0 94 0;
#X connect 94 0 97 0;
#X connect 95 0 94 0;
#X connect 98 0 106 0;
#X connect 98 0 99 0;
#X connect 99 0 100 0;
#X connect 100 0 103 0;
#X connect 101 0 100 0;
#X connect 104 0 121 0;
#X connect 105 0 121 0;
#X connect 106 0 122 0;
#X connect 107 0 122 0;
#X connect 108 0 114 0;
#X connect 108 0 109 0;
#X connect 109 0 110 0;
#X connect 110 0 113 0;
#X connect 111 0 110 0;
#X connect 114 0 119 0;
#X connect 115 0 119 0;
#X connect 116 0 710 0;
#X connect 116 0 124 1;
#X connect 117 0 709 0;
#X connect 117 0 123 1;
#X connect 118 0 711 0;
#X connect 118 0 120 1;
#X connect 119 0 231 0;
#X connect 120 0 111 0;
#X connect 120 0 112 0;
#X connect 121 0 229 0;
#X connect 122 0 230 0;
#X connect 123 0 95 0;
#X connect 123 0 96 0;
#X connect 124 0 101 0;
#X connect 124 0 102 0;
#X connect 125 0 643 0;
#X connect 126 0 127 0;
#X connect 127 0 125 0;
#X connect 128 0 130 0;
#X connect 129 0 134 0;
#X connect 130 0 125 0;
#X connect 131 0 644 0;
#X connect 132 0 133 0;
#X connect 133 0 131 0;
#X connect 134 0 131 0;
#X connect 135 0 645 0;
#X connect 136 0 137 0;
#X connect 137 0 135 0;
#X connect 138 0 140 0;
#X connect 139 0 144 0;
#X connect 140 0 135 0;
#X connect 141 0 646 0;
#X connect 142 0 143 0;
#X connect 143 0 141 0;
#X connect 144 0 141 0;
#X connect 145 0 647 0;
#X connect 146 0 147 0;
#X connect 147 0 145 0;
#X connect 148 0 150 0;
#X connect 149 0 154 0;
#X connect 150 0 145 0;
#X connect 151 0 648 0;
#X connect 152 0 153 0;
#X connect 153 0 151 0;
#X connect 154 0 151 0;
#X connect 155 0 649 0;
#X connect 156 0 157 0;
#X connect 157 0 155 0;
#X connect 158 0 160 0;
#X connect 159 0 164 0;
#X connect 160 0 155 0;
#X connect 161 0 650 0;
#X connect 162 0 163 0;
#X connect 163 0 161 0;
#X connect 164 0 161 0;
#X connect 165 0 651 0;
#X connect 166 0 167 0;
#X connect 167 0 165 0;
#X connect 168 0 170 0;
#X connect 169 0 174 0;
#X connect 170 0 165 0;
#X connect 171 0 652 0;
#X connect 172 0 173 0;
#X connect 173 0 171 0;
#X connect 174 0 171 0;
#X connect 175 0 653 0;
#X connect 176 0 177 0;
#X connect 177 0 175 0;
#X connect 178 0 180 0;
#X connect 179 0 184 0;
#X connect 180 0 175 0;
#X connect 181 0 654 0;
#X connect 182 0 183 0;
#X connect 183 0 181 0;
#X connect 184 0 181 0;
#X connect 185 0 655 0;
#X connect 186 0 187 0;
#X connect 187 0 185 0;
#X connect 188 0 190 0;
#X connect 189 0 194 0;
#X connect 190 0 185 0;
#X connect 191 0 656 0;
#X connect 192 0 193 0;
#X connect 193 0 191 0;
#X connect 194 0 191 0;
#X connect 195 0 657 0;
#X connect 196 0 197 0;
#X connect 197 0 195 0;
#X connect 198 0 200 0;
#X connect 199 0 204 0;
#X connect 200 0 195 0;
#X connect 201 0 658 0;
#X connect 202 0 203 0;
#X connect 203 0 201 0;
#X connect 204 0 201 0;
#X connect 205 0 659 0;
#X connect 206 0 207 0;
#X connect 207 0 205 0;
#X connect 208 0 210 0;
#X connect 209 0 214 0;
#X connect 210 0 205 0;
#X connect 211 0 660 0;
#X connect 212 0 213 0;
#X connect 213 0 211 0;
#X connect 214 0 211 0;
#X connect 215 0 662 0;
#X connect 216 0 217 0;
#X connect 217 0 215 0;
#X connect 218 0 220 0;
#X connect 219 0 224 0;
#X connect 220 0 215 0;
#X connect 221 0 661 0;
#X connect 222 0 223 0;
#X connect 223 0 221 0;
#X connect 224 0 221 0;
#X connect 226 0 82 0;
#X connect 227 0 81 0;
#X connect 228 0 83 0;
#X connect 229 0 117 0;
#X connect 230 0 116 0;
#X connect 231 0 118 0;
#X connect 232 0 233 0;
#X connect 232 0 244 0;
#X connect 233 0 234 0;
#X connect 234 0 237 0;
#X connect 235 0 234 0;
#X connect 238 0 246 0;
#X connect 238 0 239 0;
#X connect 239 0 240 0;
#X connect 240 0 243 0;
#X connect 241 0 240 0;
#X connect 244 0 261 0;
#X connect 245 0 261 0;
#X connect 246 0 262 0;
#X connect 247 0 262 0;
#X connect 248 0 254 0;
#X connect 248 0 249 0;
#X connect 249 0 250 0;
#X connect 250 0 253 0;
#X connect 251 0 250 0;
#X connect 254 0 259 0;
#X connect 255 0 259 0;
#X connect 256 0 713 0;
#X connect 256 0 264 1;
#X connect 257 0 712 0;
#X connect 257 0 263 1;
#X connect 258 0 714 0;
#X connect 258 0 260 1;
#X connect 259 0 300 0;
#X connect 260 0 251 0;
#X connect 260 0 252 0;
#X connect 261 0 298 0;
#X connect 262 0 299 0;
#X connect 263 0 235 0;
#X connect 263 0 236 0;
#X connect 264 0 241 0;
#X connect 264 0 242 0;
#X connect 265 0 266 0;
#X connect 265 0 277 0;
#X connect 266 0 267 0;
#X connect 267 0 270 0;
#X connect 268 0 267 0;
#X connect 271 0 279 0;
#X connect 271 0 272 0;
#X connect 272 0 273 0;
#X connect 273 0 276 0;
#X connect 274 0 273 0;
#X connect 277 0 294 0;
#X connect 278 0 294 0;
#X connect 279 0 295 0;
#X connect 280 0 295 0;
#X connect 281 0 287 0;
#X connect 281 0 282 0;
#X connect 282 0 283 0;
#X connect 283 0 286 0;
#X connect 284 0 283 0;
#X connect 287 0 292 0;
#X connect 288 0 292 0;
#X connect 289 0 716 0;
#X connect 289 0 297 1;
#X connect 290 0 715 0;
#X connect 290 0 296 1;
#X connect 291 0 717 0;
#X connect 291 0 293 1;
#X connect 292 0 303 0;
#X connect 293 0 284 0;
#X connect 293 0 285 0;
#X connect 294 0 301 0;
#X connect 295 0 302 0;
#X connect 296 0 268 0;
#X connect 296 0 269 0;
#X connect 297 0 274 0;
#X connect 297 0 275 0;
#X connect 298 0 257 0;
#X connect 299 0 256 0;
#X connect 300 0 258 0;
#X connect 301 0 290 0;
#X connect 302 0 289 0;
#X connect 303 0 291 0;
#X connect 304 0 305 0;
#X connect 304 0 316 0;
#X connect 305 0 306 0;
#X connect 306 0 309 0;
#X connect 307 0 306 0;
#X connect 310 0 318 0;
#X connect 310 0 311 0;
#X connect 311 0 312 0;
#X connect 312 0 315 0;
#X connect 313 0 312 0;
#X connect 316 0 333 0;
#X connect 317 0 333 0;
#X connect 318 0 334 0;
#X connect 319 0 334 0;
#X connect 320 0 326 0;
#X connect 320 0 321 0;
#X connect 321 0 322 0;
#X connect 322 0 325 0;
#X connect 323 0 322 0;
#X connect 326 0 331 0;
#X connect 327 0 331 0;
#X connect 328 0 720 0;
#X connect 328 0 336 1;
#X connect 329 0 718 0;
#X connect 329 0 335 1;
#X connect 330 0 721 0;
#X connect 330 0 332 1;
#X connect 331 0 372 0;
#X connect 332 0 323 0;
#X connect 332 0 324 0;
#X connect 333 0 370 0;
#X connect 334 0 371 0;
#X connect 335 0 307 0;
#X connect 335 0 308 0;
#X connect 336 0 313 0;
#X connect 336 0 314 0;
#X connect 337 0 338 0;
#X connect 337 0 349 0;
#X connect 338 0 339 0;
#X connect 339 0 342 0;
#X connect 340 0 339 0;
#X connect 343 0 351 0;
#X connect 343 0 344 0;
#X connect 344 0 345 0;
#X connect 345 0 348 0;
#X connect 346 0 345 0;
#X connect 349 0 366 0;
#X connect 350 0 366 0;
#X connect 351 0 367 0;
#X connect 352 0 367 0;
#X connect 353 0 359 0;
#X connect 353 0 354 0;
#X connect 354 0 355 0;
#X connect 355 0 358 0;
#X connect 356 0 355 0;
#X connect 359 0 364 0;
#X connect 360 0 364 0;
#X connect 361 0 723 0;
#X connect 361 0 369 1;
#X connect 362 0 722 0;
#X connect 362 0 368 1;
#X connect 363 0 724 0;
#X connect 363 0 365 1;
#X connect 364 0 375 0;
#X connect 365 0 356 0;
#X connect 365 0 357 0;
#X connect 366 0 373 0;
#X connect 367 0 374 0;
#X connect 368 0 340 0;
#X connect 368 0 341 0;
#X connect 369 0 346 0;
#X connect 369 0 347 0;
#X connect 370 0 329 0;
#X connect 371 0 328 0;
#X connect 372 0 330 0;
#X connect 373 0 362 0;
#X connect 374 0 361 0;
#X connect 375 0 363 0;
#X connect 376 0 377 0;
#X connect 376 0 388 0;
#X connect 377 0 378 0;
#X connect 378 0 381 0;
#X connect 379 0 378 0;
#X connect 382 0 390 0;
#X connect 382 0 383 0;
#X connect 383 0 384 0;
#X connect 384 0 387 0;
#X connect 385 0 384 0;
#X connect 388 0 405 0;
#X connect 389 0 405 0;
#X connect 390 0 406 0;
#X connect 391 0 406 0;
#X connect 392 0 398 0;
#X connect 392 0 393 0;
#X connect 393 0 394 0;
#X connect 394 0 397 0;
#X connect 395 0 394 0;
#X connect 398 0 403 0;
#X connect 399 0 403 0;
#X connect 400 0 725 0;
#X connect 400 0 408 1;
#X connect 401 0 719 0;
#X connect 401 0 407 1;
#X connect 402 0 726 0;
#X connect 402 0 404 1;
#X connect 403 0 444 0;
#X connect 404 0 395 0;
#X connect 404 0 396 0;
#X connect 405 0 442 0;
#X connect 406 0 443 0;
#X connect 407 0 379 0;
#X connect 407 0 380 0;
#X connect 408 0 385 0;
#X connect 408 0 386 0;
#X connect 409 0 410 0;
#X connect 409 0 421 0;
#X connect 410 0 411 0;
#X connect 411 0 414 0;
#X connect 412 0 411 0;
#X connect 415 0 423 0;
#X connect 415 0 416 0;
#X connect 416 0 417 0;
#X connect 417 0 420 0;
#X connect 418 0 417 0;
#X connect 421 0 438 0;
#X connect 422 0 438 0;
#X connect 423 0 439 0;
#X connect 424 0 439 0;
#X connect 425 0 431 0;
#X connect 425 0 426 0;
#X connect 426 0 427 0;
#X connect 427 0 430 0;
#X connect 428 0 427 0;
#X connect 431 0 436 0;
#X connect 432 0 436 0;
#X connect 433 0 728 0;
#X connect 433 0 441 1;
#X connect 434 0 727 0;
#X connect 434 0 440 1;
#X connect 435 0 729 0;
#X connect 435 0 437 1;
#X connect 436 0 447 0;
#X connect 437 0 428 0;
#X connect 437 0 429 0;
#X connect 438 0 445 0;
#X connect 439 0 446 0;
#X connect 440 0 412 0;
#X connect 440 0 413 0;
#X connect 441 0 418 0;
#X connect 441 0 419 0;
#X connect 442 0 401 0;
#X connect 443 0 400 0;
#X connect 444 0 402 0;
#X connect 445 0 434 0;
#X connect 446 0 433 0;
#X connect 447 0 435 0;
#X connect 448 0 449 0;
#X connect 448 0 460 0;
#X connect 449 0 450 0;
#X connect 450 0 453 0;
#X connect 451 0 450 0;
#X connect 454 0 462 0;
#X connect 454 0 455 0;
#X connect 455 0 456 0;
#X connect 456 0 459 0;
#X connect 457 0 456 0;
#X connect 460 0 477 0;
#X connect 461 0 477 0;
#X connect 462 0 478 0;
#X connect 463 0 478 0;
#X connect 464 0 470 0;
#X connect 464 0 465 0;
#X connect 465 0 466 0;
#X connect 466 0 469 0;
#X connect 467 0 466 0;
#X connect 470 0 475 0;
#X connect 471 0 475 0;
#X connect 472 0 731 0;
#X connect 472 0 480 1;
#X connect 473 0 730 0;
#X connect 473 0 479 1;
#X connect 474 0 732 0;
#X connect 474 0 476 1;
#X connect 475 0 516 0;
#X connect 476 0 467 0;
#X connect 476 0 468 0;
#X connect 477 0 514 0;
#X connect 478 0 515 0;
#X connect 479 0 451 0;
#X connect 479 0 452 0;
#X connect 480 0 457 0;
#X connect 480 0 458 0;
#X connect 481 0 482 0;
#X connect 481 0 493 0;
#X connect 482 0 483 0;
#X connect 483 0 486 0;
#X connect 484 0 483 0;
#X connect 487 0 495 0;
#X connect 487 0 488 0;
#X connect 488 0 489 0;
#X connect 489 0 492 0;
#X connect 490 0 489 0;
#X connect 493 0 510 0;
#X connect 494 0 510 0;
#X connect 495 0 511 0;
#X connect 496 0 511 0;
#X connect 497 0 503 0;
#X connect 497 0 498 0;
#X connect 498 0 499 0;
#X connect 499 0 502 0;
#X connect 500 0 499 0;
#X connect 503 0 508 0;
#X connect 504 0 508 0;
#X connect 505 0 734 0;
#X connect 505 0 513 1;
#X connect 506 0 733 0;
#X connect 506 0 512 1;
#X connect 507 0 735 0;
#X connect 507 0 509 1;
#X connect 508 0 519 0;
#X connect 509 0 500 0;
#X connect 509 0 501 0;
#X connect 510 0 517 0;
#X connect 511 0 518 0;
#X connect 512 0 484 0;
#X connect 512 0 485 0;
#X connect 513 0 490 0;
#X connect 513 0 491 0;
#X connect 514 0 473 0;
#X connect 515 0 472 0;
#X connect 516 0 474 0;
#X connect 517 0 506 0;
#X connect 518 0 505 0;
#X connect 519 0 507 0;
#X connect 520 0 521 0;
#X connect 520 0 532 0;
#X connect 521 0 522 0;
#X connect 522 0 525 0;
#X connect 523 0 522 0;
#X connect 526 0 534 0;
#X connect 526 0 527 0;
#X connect 527 0 528 0;
#X connect 528 0 531 0;
#X connect 529 0 528 0;
#X connect 532 0 549 0;
#X connect 533 0 549 0;
#X connect 534 0 550 0;
#X connect 535 0 550 0;
#X connect 536 0 542 0;
#X connect 536 0 537 0;
#X connect 537 0 538 0;
#X connect 538 0 541 0;
#X connect 539 0 538 0;
#X connect 542 0 547 0;
#X connect 543 0 547 0;
#X connect 544 0 737 0;
#X connect 544 0 552 1;
#X connect 545 0 736 0;
#X connect 545 0 551 1;
#X connect 546 0 738 0;
#X connect 546 0 548 1;
#X connect 547 0 588 0;
#X connect 548 0 539 0;
#X connect 548 0 540 0;
#X connect 549 0 586 0;
#X connect 550 0 587 0;
#X connect 551 0 523 0;
#X connect 551 0 524 0;
#X connect 552 0 529 0;
#X connect 552 0 530 0;
#X connect 553 0 554 0;
#X connect 553 0 565 0;
#X connect 554 0 555 0;
#X connect 555 0 558 0;
#X connect 556 0 555 0;
#X connect 559 0 567 0;
#X connect 559 0 560 0;
#X connect 560 0 561 0;
#X connect 561 0 564 0;
#X connect 562 0 561 0;
#X connect 565 0 582 0;
#X connect 566 0 582 0;
#X connect 567 0 583 0;
#X connect 568 0 583 0;
#X connect 569 0 575 0;
#X connect 569 0 570 0;
#X connect 570 0 571 0;
#X connect 571 0 574 0;
#X connect 572 0 571 0;
#X connect 575 0 580 0;
#X connect 576 0 580 0;
#X connect 577 0 740 0;
#X connect 577 0 585 1;
#X connect 578 0 739 0;
#X connect 578 0 584 1;
#X connect 579 0 741 0;
#X connect 579 0 581 1;
#X connect 580 0 591 0;
#X connect 581 0 572 0;
#X connect 581 0 573 0;
#X connect 582 0 589 0;
#X connect 583 0 590 0;
#X connect 584 0 556 0;
#X connect 584 0 557 0;
#X connect 585 0 562 0;
#X connect 585 0 563 0;
#X connect 586 0 545 0;
#X connect 587 0 544 0;
#X connect 588 0 546 0;
#X connect 589 0 578 0;
#X connect 590 0 577 0;
#X connect 591 0 579 0;
#X connect 592 0 593 0;
#X connect 592 0 604 0;
#X connect 593 0 594 0;
#X connect 594 0 597 0;
#X connect 595 0 594 0;
#X connect 598 0 606 0;
#X connect 598 0 599 0;
#X connect 599 0 600 0;
#X connect 600 0 603 0;
#X connect 601 0 600 0;
#X connect 604 0 621 0;
#X connect 605 0 621 0;
#X connect 606 0 622 0;
#X connect 607 0 622 0;
#X connect 608 0 614 0;
#X connect 608 0 609 0;
#X connect 609 0 610 0;
#X connect 610 0 613 0;
#X connect 611 0 610 0;
#X connect 614 0 619 0;
#X connect 615 0 619 0;
#X connect 616 0 743 0;
#X connect 616 0 624 1;
#X connect 617 0 742 0;
#X connect 617 0 623 1;
#X connect 618 0 744 0;
#X connect 618 0 620 1;
#X connect 619 0 627 0;
#X connect 620 0 611 0;
#X connect 620 0 612 0;
#X connect 621 0 625 0;
#X connect 622 0 626 0;
#X connect 623 0 595 0;
#X connect 623 0 596 0;
#X connect 624 0 601 0;
#X connect 624 0 602 0;
#X connect 625 0 617 0;
#X connect 626 0 616 0;
#X connect 627 0 618 0;
#X connect 629 0 635 0;
#X connect 629 0 630 0;
#X connect 630 0 631 0;
#X connect 631 0 634 0;
#X connect 632 0 631 0;
#X connect 635 0 638 0;
#X connect 636 0 638 0;
#X connect 637 0 745 0;
#X connect 637 0 639 1;
#X connect 638 0 640 0;
#X connect 639 0 632 0;
#X connect 639 0 633 0;
#X connect 640 0 637 0;
#X connect 672 0 673 0;
#X connect 673 0 674 0;
#X connect 675 0 3 0;
#X connect 676 0 15 0;
#X connect 677 0 40 0;
#X connect 678 0 46 0;
#X connect 679 0 126 0;
#X connect 680 0 132 0;
#X connect 681 0 136 0;
#X connect 682 0 142 0;
#X connect 683 0 146 0;
#X connect 684 0 152 0;
#X connect 685 0 156 0;
#X connect 686 0 162 0;
#X connect 687 0 166 0;
#X connect 688 0 172 0;
#X connect 689 0 176 0;
#X connect 690 0 182 0;
#X connect 691 0 186 0;
#X connect 692 0 192 0;
#X connect 693 0 196 0;
#X connect 694 0 202 0;
#X connect 695 0 206 0;
#X connect 696 0 212 0;
#X connect 697 0 216 0;
#X connect 698 0 222 0;
#X connect 699 0 225 0;
#X connect 699 0 700 0;
#X connect 700 0 664 0;
#X connect 702 0 699 0;
#X connect 703 0 90 0;
#X connect 704 0 91 0;
#X connect 705 0 54 0;
#X connect 706 0 88 0;
#X connect 707 0 89 0;
#X connect 708 0 85 0;
#X connect 709 0 123 0;
#X connect 710 0 124 0;
#X connect 711 0 120 0;
#X connect 712 0 263 0;
#X connect 713 0 264 0;
#X connect 714 0 260 0;
#X connect 715 0 296 0;
#X connect 716 0 297 0;
#X connect 717 0 293 0;
#X connect 718 0 335 0;
#X connect 719 0 407 0;
#X connect 720 0 336 0;
#X connect 721 0 332 0;
#X connect 722 0 368 0;
#X connect 723 0 369 0;
#X connect 724 0 365 0;
#X connect 725 0 408 0;
#X connect 726 0 404 0;
#X connect 727 0 440 0;
#X connect 728 0 441 0;
#X connect 729 0 437 0;
#X connect 730 0 479 0;
#X connect 731 0 480 0;
#X connect 732 0 476 0;
#X connect 733 0 512 0;
#X connect 734 0 513 0;
#X connect 735 0 509 0;
#X connect 736 0 551 0;
#X connect 737 0 552 0;
#X connect 738 0 548 0;
#X connect 739 0 584 0;
#X connect 740 0 585 0;
#X connect 741 0 581 0;
#X connect 742 0 623 0;
#X connect 743 0 624 0;
#X connect 744 0 620 0;
#X connect 745 0 639 0;
#X connect 746 0 51 0;
#X connect 747 0 50 0;
#X connect 748 0 52 0;
#X connect 750 0 749 0;
#X connect 751 0 750 0;
