#N canvas 529 112 1924 731 12;
#X obj 19 349 dac~ 1 2 3 4 5 6 7 8 9 10 11 12 13 14 15 16 17 18 19
20 21 22 23 24, f 265;
#X obj 19 227 *~;
#X floatatom 37 254 5 0 0 0 - - - 0;
#X obj 37 120 tgl 15 0 empty empty empty 17 7 0 10 #fcfcfc #000000
#000000 0 1;
#X obj 37 177 line 0 10, f 5;
#X obj 19 299 *~ 0.5, f 3;
#X msg 37 144 \$1 3000;
#X obj 37 90 r Baum1;
#X obj 100 228 *~;
#X floatatom 119 255 5 0 0 0 - - - 0;
#X obj 119 121 tgl 15 0 empty empty empty 17 7 0 10 #fcfcfc #000000
#000000 0 1;
#X obj 119 178 line 0 10, f 5;
#X obj 100 300 *~ 0.5, f 3;
#X msg 119 145 \$1 3000;
#X obj 118 276 r mV;
#X obj 36 274 r mV;
#X obj 119 91 r Baum2;
#X obj 180 228 *~;
#X floatatom 198 255 5 0 0 0 - - - 0;
#X obj 198 121 tgl 15 0 empty empty empty 17 7 0 10 #fcfcfc #000000
#000000 0 1;
#X obj 198 178 line 0 10, f 5;
#X obj 180 300 *~ 0.5, f 3;
#X msg 198 145 \$1 3000;
#X obj 261 229 *~;
#X floatatom 280 256 5 0 0 0 - - - 0;
#X obj 280 122 tgl 15 0 empty empty empty 17 7 0 10 #fcfcfc #000000
#000000 0 1;
#X obj 280 179 line 0 10, f 5;
#X obj 261 301 *~ 0.5, f 3;
#X msg 280 146 \$1 3000;
#X obj 279 277 r mV;
#X obj 197 275 r mV;
#X obj 341 228 *~;
#X floatatom 359 255 5 0 0 0 - - - 0;
#X obj 359 121 tgl 15 0 empty empty empty 17 7 0 10 #fcfcfc #000000
#000000 0 1;
#X obj 359 178 line 0 10, f 5;
#X obj 341 300 *~ 0.5, f 3;
#X msg 359 145 \$1 3000;
#X obj 422 229 *~;
#X floatatom 441 256 5 0 0 0 - - - 0;
#X obj 441 122 tgl 15 0 empty empty empty 17 7 0 10 #fcfcfc #000000
#000000 0 1;
#X obj 441 179 line 0 10, f 5;
#X obj 422 301 *~ 0.5, f 3;
#X msg 441 146 \$1 3000;
#X obj 440 277 r mV;
#X obj 358 275 r mV;
#X obj 502 229 *~;
#X floatatom 520 256 5 0 0 0 - - - 0;
#X obj 520 122 tgl 15 0 empty empty empty 17 7 0 10 #fcfcfc #000000
#000000 0 1;
#X obj 520 179 line 0 10, f 5;
#X obj 502 301 *~ 0.5, f 3;
#X msg 520 146 \$1 3000;
#X obj 583 230 *~;
#X floatatom 602 257 5 0 0 0 - - - 0;
#X obj 602 123 tgl 15 0 empty empty empty 17 7 0 10 #fcfcfc #000000
#000000 0 1;
#X obj 602 180 line 0 10, f 5;
#X obj 583 302 *~ 0.5, f 3;
#X msg 602 147 \$1 3000;
#X obj 601 278 r mV;
#X obj 519 276 r mV;
#X obj 198 91 r Baum3;
#X obj 280 92 r Baum4;
#X obj 359 91 r Baum5;
#X obj 441 92 r Baum6;
#X obj 520 92 r Baum7;
#X obj 602 93 r Baum8;
#X obj 663 229 *~;
#X floatatom 681 256 5 0 0 0 - - - 0;
#X obj 681 122 tgl 15 0 empty empty empty 17 7 0 10 #fcfcfc #000000
#000000 0 1;
#X obj 681 179 line 0 10, f 5;
#X obj 663 301 *~ 0.5, f 3;
#X msg 681 146 \$1 3000;
#X obj 744 230 *~;
#X floatatom 763 257 5 0 0 0 - - - 0;
#X obj 763 123 tgl 15 0 empty empty empty 17 7 0 10 #fcfcfc #000000
#000000 0 1;
#X obj 763 180 line 0 10, f 5;
#X obj 744 302 *~ 0.5, f 3;
#X msg 763 147 \$1 3000;
#X obj 762 278 r mV;
#X obj 680 276 r mV;
#X obj 824 231 *~;
#X floatatom 842 258 5 0 0 0 - - - 0;
#X obj 842 124 tgl 15 0 empty empty empty 17 7 0 10 #fcfcfc #000000
#000000 0 1;
#X obj 842 181 line 0 10, f 5;
#X obj 824 303 *~ 0.5, f 3;
#X msg 842 148 \$1 3000;
#X obj 905 232 *~;
#X floatatom 924 259 5 0 0 0 - - - 0;
#X obj 924 125 tgl 15 0 empty empty empty 17 7 0 10 #fcfcfc #000000
#000000 0 1;
#X obj 924 182 line 0 10, f 5;
#X obj 905 304 *~ 0.5, f 3;
#X msg 924 149 \$1 3000;
#X obj 923 280 r mV;
#X obj 841 278 r mV;
#X obj 985 231 *~;
#X floatatom 1003 258 5 0 0 0 - - - 0;
#X obj 1003 124 tgl 15 0 empty empty empty 17 7 0 10 #fcfcfc #000000
#000000 0 1;
#X obj 1003 181 line 0 10, f 5;
#X obj 985 303 *~ 0.5, f 3;
#X msg 1003 148 \$1 3000;
#X obj 1066 232 *~;
#X floatatom 1085 259 5 0 0 0 - - - 0;
#X obj 1085 125 tgl 15 0 empty empty empty 17 7 0 10 #fcfcfc #000000
#000000 0 1;
#X obj 1085 182 line 0 10, f 5;
#X obj 1066 304 *~ 0.5, f 3;
#X msg 1085 149 \$1 3000;
#X obj 1084 280 r mV;
#X obj 1002 278 r mV;
#X obj 1146 232 *~;
#X floatatom 1164 259 5 0 0 0 - - - 0;
#X obj 1164 125 tgl 15 0 empty empty empty 17 7 0 10 #fcfcfc #000000
#000000 0 1;
#X obj 1164 182 line 0 10, f 5;
#X obj 1146 304 *~ 0.5, f 3;
#X msg 1164 149 \$1 3000;
#X obj 1227 232 *~;
#X floatatom 1246 259 5 0 0 0 - - - 0;
#X obj 1246 125 tgl 15 0 empty empty empty 17 7 0 10 #fcfcfc #000000
#000000 0 1;
#X obj 1246 182 line 0 10, f 5;
#X obj 1227 304 *~ 0.5, f 3;
#X msg 1246 149 \$1 3000;
#X obj 1245 280 r mV;
#X obj 1163 279 r mV;
#X obj 1307 231 *~;
#X floatatom 1326 258 5 0 0 0 - - - 0;
#X obj 1326 124 tgl 15 0 empty empty empty 17 7 0 10 #fcfcfc #000000
#000000 0 1;
#X obj 1326 181 line 0 10, f 5;
#X obj 1307 303 *~ 0.5, f 3;
#X msg 1326 148 \$1 3000;
#X obj 1325 279 r mV;
#X obj 1387 230 *~;
#X floatatom 1405 257 5 0 0 0 - - - 0;
#X obj 1405 123 tgl 15 0 empty empty empty 17 7 0 10 #fcfcfc #000000
#000000 0 1;
#X obj 1405 180 line 0 10, f 5;
#X obj 1387 302 *~ 0.5, f 3;
#X msg 1405 147 \$1 3000;
#X obj 1468 231 *~;
#X floatatom 1487 258 5 0 0 0 - - - 0;
#X obj 1487 124 tgl 15 0 empty empty empty 17 7 0 10 #fcfcfc #000000
#000000 0 1;
#X obj 1487 181 line 0 10, f 5;
#X obj 1468 303 *~ 0.5, f 3;
#X msg 1487 148 \$1 3000;
#X obj 1486 279 r mV;
#X obj 1404 277 r mV;
#X obj 1548 231 *~;
#X floatatom 1566 258 5 0 0 0 - - - 0;
#X obj 1566 124 tgl 15 0 empty empty empty 17 7 0 10 #fcfcfc #000000
#000000 0 1;
#X obj 1566 181 line 0 10, f 5;
#X obj 1548 303 *~ 0.5, f 3;
#X msg 1566 148 \$1 3000;
#X obj 1629 232 *~;
#X floatatom 1648 259 5 0 0 0 - - - 0;
#X obj 1648 125 tgl 15 0 empty empty empty 17 7 0 10 #fcfcfc #000000
#000000 0 1;
#X obj 1648 182 line 0 10, f 5;
#X obj 1629 304 *~ 0.5, f 3;
#X msg 1648 149 \$1 3000;
#X obj 1647 280 r mV;
#X obj 1565 278 r mV;
#X obj 1709 231 *~;
#X floatatom 1727 258 5 0 0 0 - - - 0;
#X obj 1727 124 tgl 15 0 empty empty empty 17 7 0 10 #fcfcfc #000000
#000000 0 1;
#X obj 1727 181 line 0 10, f 5;
#X obj 1709 303 *~ 0.5, f 3;
#X msg 1727 148 \$1 3000;
#X obj 1790 232 *~;
#X floatatom 1809 259 5 0 0 0 - - - 0;
#X obj 1809 125 tgl 15 0 empty empty empty 17 7 0 10 #fcfcfc #000000
#000000 0 1;
#X obj 1809 182 line 0 10, f 5;
#X obj 1790 304 *~ 0.5, f 3;
#X msg 1809 149 \$1 3000;
#X obj 1808 280 r mV;
#X obj 1726 278 r mV;
#X obj 1871 232 *~;
#X floatatom 1889 259 5 0 0 0 - - - 0;
#X obj 1889 125 tgl 15 0 empty empty empty 17 7 0 10 #fcfcfc #000000
#000000 0 1;
#X obj 1889 182 line 0 10, f 5;
#X obj 1871 304 *~ 0.5, f 3;
#X msg 1889 149 \$1 3000;
#X obj 1888 279 r mV;
#X obj 681 92 r Baum9;
#X obj 763 93 r Baum10;
#X obj 842 94 r Baum11;
#X obj 924 95 r Baum12;
#X obj 1003 94 r Baum13;
#X obj 1085 95 r Baum14;
#X obj 1164 95 r Baum15;
#X obj 1246 95 r Baum16;
#X obj 1326 94 r Baum17;
#X obj 1405 93 r Baum18;
#X obj 1487 94 r Baum19;
#X obj 1566 94 r Baum20;
#X obj 1648 95 r Baum21;
#X obj 1727 94 r Baum22;
#X obj 1809 95 r Baum23;
#X obj 1889 95 r Baum24;
#X text 27 405 Dieses Patch ist der DAC für Flächige Sounds und bezieht
die Informationen welcher Channel aus und eingeblendet wird von pd_bewegungflaeche
;
#X text -292 147 Die Zahl 3000 manuell Ändern für mehr Glide;
#X obj -101 40 catch~ Layer1;
#X obj 19 46 *~ 1, f 7;
#X obj 100 47 *~ 1, f 7;
#X obj 180 47 *~ 1, f 7;
#X obj 261 48 *~ 1, f 7;
#X obj 341 47 *~ 1, f 7;
#X obj 422 48 *~ 1, f 7;
#X obj 502 48 *~ 1, f 7;
#X obj 583 49 *~ 1, f 7;
#X obj 663 48 *~ 1, f 7;
#X obj 744 49 *~ 1, f 7;
#X obj 824 50 *~ 1, f 7;
#X obj 905 51 *~ 1, f 7;
#X obj 985 50 *~ 1, f 7;
#X obj 1066 51 *~ 1, f 7;
#X obj 1146 51 *~ 1, f 7;
#X obj 1227 51 *~ 1, f 7;
#X obj 1307 50 *~ 1, f 7;
#X obj 1387 49 *~ 1, f 7;
#X obj 1468 50 *~ 1, f 7;
#X obj 1548 50 *~ 1, f 7;
#X obj 1629 51 *~ 1, f 7;
#X obj 1709 50 *~ 1, f 7;
#X obj 1791 51 *~ 1, f 7;
#X obj 1871 51 *~ 1, f 7;
#X obj -92 266 r START;
#X msg -96 314 0.8;
#X obj -95 357 s mV;
#X connect 1 0 5 0;
#X connect 3 0 6 0;
#X connect 4 0 1 1;
#X connect 4 0 2 0;
#X connect 5 0 0 0;
#X connect 6 0 4 0;
#X connect 7 0 3 0;
#X connect 8 0 12 0;
#X connect 10 0 13 0;
#X connect 11 0 8 1;
#X connect 11 0 9 0;
#X connect 12 0 0 1;
#X connect 13 0 11 0;
#X connect 14 0 12 1;
#X connect 15 0 5 1;
#X connect 16 0 10 0;
#X connect 17 0 21 0;
#X connect 19 0 22 0;
#X connect 20 0 17 1;
#X connect 20 0 18 0;
#X connect 21 0 0 2;
#X connect 22 0 20 0;
#X connect 23 0 27 0;
#X connect 25 0 28 0;
#X connect 26 0 23 1;
#X connect 26 0 24 0;
#X connect 27 0 0 3;
#X connect 28 0 26 0;
#X connect 29 0 27 1;
#X connect 30 0 21 1;
#X connect 31 0 35 0;
#X connect 33 0 36 0;
#X connect 34 0 31 1;
#X connect 34 0 32 0;
#X connect 35 0 0 4;
#X connect 36 0 34 0;
#X connect 37 0 41 0;
#X connect 39 0 42 0;
#X connect 40 0 37 1;
#X connect 40 0 38 0;
#X connect 41 0 0 5;
#X connect 42 0 40 0;
#X connect 43 0 41 1;
#X connect 44 0 35 1;
#X connect 45 0 49 0;
#X connect 47 0 50 0;
#X connect 48 0 45 1;
#X connect 48 0 46 0;
#X connect 49 0 0 6;
#X connect 50 0 48 0;
#X connect 51 0 55 0;
#X connect 53 0 56 0;
#X connect 54 0 51 1;
#X connect 54 0 52 0;
#X connect 55 0 0 7;
#X connect 56 0 54 0;
#X connect 57 0 55 1;
#X connect 58 0 49 1;
#X connect 59 0 19 0;
#X connect 60 0 25 0;
#X connect 61 0 33 0;
#X connect 62 0 39 0;
#X connect 63 0 47 0;
#X connect 64 0 53 0;
#X connect 65 0 69 0;
#X connect 67 0 70 0;
#X connect 68 0 65 1;
#X connect 68 0 66 0;
#X connect 69 0 0 8;
#X connect 70 0 68 0;
#X connect 71 0 75 0;
#X connect 73 0 76 0;
#X connect 74 0 71 1;
#X connect 74 0 72 0;
#X connect 75 0 0 9;
#X connect 76 0 74 0;
#X connect 77 0 75 1;
#X connect 78 0 69 1;
#X connect 79 0 83 0;
#X connect 81 0 84 0;
#X connect 82 0 79 1;
#X connect 82 0 80 0;
#X connect 83 0 0 10;
#X connect 84 0 82 0;
#X connect 85 0 89 0;
#X connect 87 0 90 0;
#X connect 88 0 85 1;
#X connect 88 0 86 0;
#X connect 89 0 0 11;
#X connect 90 0 88 0;
#X connect 91 0 89 1;
#X connect 92 0 83 1;
#X connect 93 0 97 0;
#X connect 95 0 98 0;
#X connect 96 0 93 1;
#X connect 96 0 94 0;
#X connect 97 0 0 12;
#X connect 98 0 96 0;
#X connect 99 0 103 0;
#X connect 101 0 104 0;
#X connect 102 0 99 1;
#X connect 102 0 100 0;
#X connect 103 0 0 13;
#X connect 104 0 102 0;
#X connect 105 0 103 1;
#X connect 106 0 97 1;
#X connect 107 0 111 0;
#X connect 109 0 112 0;
#X connect 110 0 107 1;
#X connect 110 0 108 0;
#X connect 111 0 0 14;
#X connect 112 0 110 0;
#X connect 113 0 117 0;
#X connect 115 0 118 0;
#X connect 116 0 113 1;
#X connect 116 0 114 0;
#X connect 117 0 0 15;
#X connect 118 0 116 0;
#X connect 119 0 117 1;
#X connect 120 0 111 1;
#X connect 121 0 125 0;
#X connect 123 0 126 0;
#X connect 124 0 121 1;
#X connect 124 0 122 0;
#X connect 125 0 0 16;
#X connect 126 0 124 0;
#X connect 127 0 125 1;
#X connect 128 0 132 0;
#X connect 130 0 133 0;
#X connect 131 0 128 1;
#X connect 131 0 129 0;
#X connect 132 0 0 17;
#X connect 133 0 131 0;
#X connect 134 0 138 0;
#X connect 136 0 139 0;
#X connect 137 0 134 1;
#X connect 137 0 135 0;
#X connect 138 0 0 18;
#X connect 139 0 137 0;
#X connect 140 0 138 1;
#X connect 141 0 132 1;
#X connect 142 0 146 0;
#X connect 144 0 147 0;
#X connect 145 0 142 1;
#X connect 145 0 143 0;
#X connect 146 0 0 19;
#X connect 147 0 145 0;
#X connect 148 0 152 0;
#X connect 150 0 153 0;
#X connect 151 0 148 1;
#X connect 151 0 149 0;
#X connect 152 0 0 20;
#X connect 153 0 151 0;
#X connect 154 0 152 1;
#X connect 155 0 146 1;
#X connect 156 0 160 0;
#X connect 158 0 161 0;
#X connect 159 0 156 1;
#X connect 159 0 157 0;
#X connect 160 0 0 21;
#X connect 161 0 159 0;
#X connect 162 0 166 0;
#X connect 164 0 167 0;
#X connect 165 0 162 1;
#X connect 165 0 163 0;
#X connect 166 0 0 22;
#X connect 167 0 165 0;
#X connect 168 0 166 1;
#X connect 169 0 160 1;
#X connect 170 0 174 0;
#X connect 172 0 175 0;
#X connect 173 0 170 1;
#X connect 173 0 171 0;
#X connect 174 0 0 23;
#X connect 175 0 173 0;
#X connect 176 0 174 1;
#X connect 177 0 67 0;
#X connect 178 0 73 0;
#X connect 179 0 81 0;
#X connect 180 0 87 0;
#X connect 181 0 95 0;
#X connect 182 0 101 0;
#X connect 183 0 109 0;
#X connect 184 0 115 0;
#X connect 185 0 123 0;
#X connect 186 0 130 0;
#X connect 187 0 136 0;
#X connect 188 0 144 0;
#X connect 189 0 150 0;
#X connect 190 0 158 0;
#X connect 191 0 164 0;
#X connect 192 0 172 0;
#X connect 195 0 196 0;
#X connect 196 0 1 0;
#X connect 196 0 197 0;
#X connect 197 0 8 0;
#X connect 197 0 198 0;
#X connect 198 0 17 0;
#X connect 198 0 199 0;
#X connect 199 0 23 0;
#X connect 199 0 200 0;
#X connect 200 0 31 0;
#X connect 200 0 201 0;
#X connect 201 0 37 0;
#X connect 201 0 202 0;
#X connect 202 0 45 0;
#X connect 202 0 203 0;
#X connect 203 0 51 0;
#X connect 203 0 204 0;
#X connect 204 0 65 0;
#X connect 204 0 205 0;
#X connect 205 0 71 0;
#X connect 205 0 206 0;
#X connect 206 0 79 0;
#X connect 206 0 207 0;
#X connect 207 0 85 0;
#X connect 207 0 208 0;
#X connect 208 0 93 0;
#X connect 208 0 209 0;
#X connect 209 0 99 0;
#X connect 209 0 210 0;
#X connect 210 0 107 0;
#X connect 210 0 211 0;
#X connect 211 0 113 0;
#X connect 211 0 212 0;
#X connect 212 0 121 0;
#X connect 212 0 213 0;
#X connect 213 0 128 0;
#X connect 213 0 214 0;
#X connect 214 0 134 0;
#X connect 214 0 215 0;
#X connect 215 0 142 0;
#X connect 215 0 216 0;
#X connect 216 0 148 0;
#X connect 216 0 217 0;
#X connect 217 0 156 0;
#X connect 217 0 218 0;
#X connect 218 0 162 0;
#X connect 218 0 219 0;
#X connect 219 0 170 0;
#X connect 220 0 221 0;
#X connect 221 0 222 0;
