#N canvas 401 124 1436 997 12;
#X obj 19 719 dac~ 1 2 3 4 5 6 7 8;
#X obj 189 719 dac~ 9 10 11 12 13 14 15 16;
#X obj 399 720 dac~ 17 18 19 20 21 22 23 24;
#X obj 87 548 *~;
#X floatatom 105 572 5 0 0 0 - - - 0;
#X obj 105 319 tgl 15 0 empty empty empty 17 7 0 10 #fcfcfc #000000
#000000 0 1;
#X obj 105 498 line 0 10, f 5;
#X obj 87 620 *~ 0.5, f 3;
#X msg 105 465 \$1 8000;
#X obj 279 544 *~;
#X floatatom 297 571 5 0 0 0 - - - 0;
#X obj 297 494 line 0 10, f 5;
#X obj 279 614 *~ 0.5, f 3;
#X msg 297 461 \$1 8000;
#X obj 483 545 *~;
#X floatatom 501 572 5 0 0 0 - - - 0;
#X obj 501 495 line 0 10, f 5;
#X obj 483 617 *~ 0.5, f 3;
#X msg 501 462 \$1 8000;
#X obj 298 317 tgl 15 0 empty empty empty 17 7 0 10 #fcfcfc #000000
#000000 0 1;
#X obj 502 318 tgl 15 0 empty empty empty 17 7 0 10 #fcfcfc #000000
#000000 0 1;
#X obj 105 594 r mVi;
#X obj 296 591 r mVi;
#X obj 500 592 r mVi;
#X obj 128 109 random 3;
#X obj 128 133 + 1;
#X obj 128 157 select 1 2 3;
#X obj 128 25 r START;
#X obj 128 48 bng 15 250 50 0 empty empty empty 17 7 0 10 #fcfcfc #000000
#000000;
#X obj 127 67 tgl 15 0 empty empty empty 17 7 0 10 #fcfcfc #000000
#000000 0 1;
#X msg 105 206 1, f 2;
#X msg 134 206 0, f 2;
#X msg 188 205 1, f 2;
#X msg 217 205 0, f 2;
#X msg 269 204 1, f 2;
#X msg 298 204 0, f 2;
#X text 208 84 hier deutlich höhere metro zahl;
#X obj 750 49 r START;
#X obj 817 49 r Auswahl;
#X obj 750 73 bng 15 250 50 0 empty empty empty 17 7 0 10 #fcfcfc #000000
#000000;
#X obj 817 73 bng 15 250 50 0 empty empty empty 17 7 0 10 #fcfcfc #000000
#000000;
#X obj 750 133 + 1;
#X floatatom 750 157 5 0 0 0 - - - 0;
#X floatatom 750 204 5 0 0 0 - - - 0;
#X obj 750 227 select 0 1;
#X obj 750 251 bng 15 250 50 0 empty empty empty 17 7 0 10 #fcfcfc
#000000 #000000;
#X obj 783 252 bng 15 250 50 0 empty empty empty 17 7 0 10 #fcfcfc
#000000 #000000;
#X obj 128 85 metro 10000;
#X obj 750 311 s startlayer3;
#X obj 851 311 s startlayer2;
#X obj 955 311 print startinterview;
#X obj 594 312 print startaehsaehms;
#X obj 87 367 *~ 1, f 7;
#X obj 279 363 *~ 1, f 7;
#X obj 483 364 *~ 1, f 7;
#X obj 182 315 catch~ Layer2;
#X obj 750 109 random 14;
#X obj 750 180 == 14;
#X connect 3 0 7 0;
#X connect 5 0 8 0;
#X connect 6 0 3 1;
#X connect 6 0 4 0;
#X connect 7 0 0 0;
#X connect 7 0 0 1;
#X connect 7 0 0 2;
#X connect 7 0 0 3;
#X connect 7 0 0 4;
#X connect 7 0 0 5;
#X connect 7 0 0 6;
#X connect 7 0 0 7;
#X connect 8 0 6 0;
#X connect 9 0 12 0;
#X connect 11 0 9 1;
#X connect 11 0 10 0;
#X connect 12 0 1 0;
#X connect 12 0 1 1;
#X connect 12 0 1 2;
#X connect 12 0 1 3;
#X connect 12 0 1 4;
#X connect 12 0 1 5;
#X connect 12 0 1 6;
#X connect 12 0 1 7;
#X connect 13 0 11 0;
#X connect 14 0 17 0;
#X connect 16 0 14 1;
#X connect 16 0 15 0;
#X connect 17 0 2 0;
#X connect 17 0 2 1;
#X connect 17 0 2 2;
#X connect 17 0 2 3;
#X connect 17 0 2 4;
#X connect 17 0 2 5;
#X connect 17 0 2 6;
#X connect 17 0 2 7;
#X connect 18 0 16 0;
#X connect 19 0 13 0;
#X connect 20 0 18 0;
#X connect 21 0 7 1;
#X connect 22 0 12 1;
#X connect 23 0 17 1;
#X connect 24 0 25 0;
#X connect 25 0 26 0;
#X connect 26 0 30 0;
#X connect 26 0 31 0;
#X connect 26 1 32 0;
#X connect 26 1 33 0;
#X connect 26 2 34 0;
#X connect 26 2 35 0;
#X connect 27 0 28 0;
#X connect 28 0 29 0;
#X connect 29 0 47 0;
#X connect 30 0 5 0;
#X connect 31 0 19 0;
#X connect 31 0 20 0;
#X connect 32 0 19 0;
#X connect 33 0 20 0;
#X connect 33 0 5 0;
#X connect 34 0 20 0;
#X connect 35 0 19 0;
#X connect 35 0 5 0;
#X connect 37 0 39 0;
#X connect 38 0 40 0;
#X connect 39 0 56 0;
#X connect 40 0 56 0;
#X connect 41 0 42 0;
#X connect 42 0 57 0;
#X connect 43 0 44 0;
#X connect 44 0 45 0;
#X connect 44 1 46 0;
#X connect 45 0 48 0;
#X connect 45 0 51 0;
#X connect 46 0 49 0;
#X connect 46 0 50 0;
#X connect 47 0 24 0;
#X connect 52 0 3 0;
#X connect 53 0 9 0;
#X connect 54 0 14 0;
#X connect 55 0 52 0;
#X connect 55 0 53 0;
#X connect 55 0 54 0;
#X connect 56 0 41 0;
#X connect 57 0 43 0;
