#N canvas 716 184 1035 681 12;
#X obj 165 539 throw~ Layer1;
#X obj 165 158 + 1;
#X obj 184 300 print;
#X obj 165 402 readsf~;
#X obj 211 447 s finished;
#X msg 89 353 1;
#X obj 130 257 bng 15 250 50 0 empty empty empty 17 7 0 10 #fcfcfc
#000000 #000000;
#X obj 165 74 r finished;
#X obj 165 106 bng 15 250 50 0 empty empty empty 17 7 0 10 #fcfcfc
#000000 #000000;
#X msg 165 252 open flaeche\$1.wav;
#X obj 78 42 r START;
#X obj 78 74 delay 1000;
#X text 237 132 Hier zahl der flaeche\$1.wav's;
#X obj 291 447 print flaechefinished;
#X obj 89 325 delay 6000;
#X obj 140 195 t b f;
#X obj 165 133 random 30;
#X connect 1 0 15 0;
#X connect 3 0 0 0;
#X connect 3 1 4 0;
#X connect 3 1 13 0;
#X connect 5 0 3 0;
#X connect 6 0 14 0;
#X connect 7 0 8 0;
#X connect 8 0 16 0;
#X connect 9 0 2 0;
#X connect 9 0 3 0;
#X connect 10 0 11 0;
#X connect 11 0 8 0;
#X connect 14 0 5 0;
#X connect 15 0 6 0;
#X connect 15 1 9 0;
#X connect 16 0 1 0;
