#N canvas 575 198 940 685 12;
#X obj 130 29 r startlayer2;
#X obj 130 119 + 1;
#X floatatom 135 146 5 0 0 0 - - - 0;
#X obj 194 446 s Auswahl;
#X obj 167 264 print;
#X obj 148 366 readsf~;
#X msg 72 317 1;
#X obj 113 221 bng 15 250 50 0 empty empty empty 17 7 0 10 #fcfcfc
#000000 #000000;
#X obj 72 289 delay 3000;
#X msg 148 216 open interview\$1.wav;
#X obj 274 446 print interviewfinished;
#X obj 148 503 throw~ Layer2;
#X obj 130 95 random 57;
#X connect 0 0 12 0;
#X connect 1 0 2 0;
#X connect 2 0 7 0;
#X connect 2 0 9 0;
#X connect 5 0 11 0;
#X connect 5 1 10 0;
#X connect 5 1 3 0;
#X connect 6 0 5 0;
#X connect 7 0 8 0;
#X connect 8 0 6 0;
#X connect 9 0 4 0;
#X connect 9 0 5 0;
#X connect 12 0 1 0;
