#N canvas 57 45 1924 1041 12;
#X obj 76 13 r layer4active;
#X obj 139 194 tgl 15 0 empty empty empty 17 7 0 10 #fcfcfc #000000
#000000 0 1;
#X obj 100 280 spigot;
#X obj 27 246 bng 15 250 50 0 empty empty empty 17 7 0 10 #fcfcfc #000000
#000000;
#X obj 27 219 r neuesaudio;
#X obj 100 317 bng 15 250 50 0 empty empty empty 17 7 0 10 #fcfcfc
#000000 #000000;
#X obj 108 249 bng 15 250 50 0 empty empty empty 17 7 0 10 #fcfcfc
#000000 #000000;
#X obj 100 518 + 1;
#X floatatom 105 543 5 0 0 0 - - - 0;
#X obj 118 765 readsf~;
#X msg 42 716 1;
#X obj 83 620 bng 15 250 50 0 empty empty empty 17 7 0 10 #fcfcfc #000000
#000000;
#X obj 117 874 *~ 0.6;
#X obj 42 688 delay 500;
#X obj 178 795 bng 15 250 50 0 empty empty empty 17 7 0 10 #fcfcfc
#000000 #000000;
#X text 187 491 Nummer der Layer4 Sounds;
#X msg 118 618 open audio\$1.wav;
#X obj 198 818 s neuesaudio;
#X obj 137 663 print audioschnipsel;
#X obj 100 398 delay 6000;
#X obj 680 289 r START;
#X obj 676 868 dac~ 1 2 3 4 5 6 7 8 9 10 11 12 13 14 15 16 17 18 19
20 21 22 23 24, f 265;
#X obj 676 746 *~;
#X floatatom 694 773 5 0 0 0 - - - 0;
#X obj 694 627 tgl 15 0 empty empty empty 17 7 0 10 #fcfcfc #000000
#000000 0 1;
#X obj 694 696 line 0 10, f 5;
#X obj 676 818 *~ 0.5, f 3;
#X msg 694 663 \$1 3000;
#X obj 757 747 *~;
#X floatatom 776 774 5 0 0 0 - - - 0;
#X obj 776 628 tgl 15 0 empty empty empty 17 7 0 10 #fcfcfc #000000
#000000 0 1;
#X obj 776 697 line 0 10, f 5;
#X obj 757 819 *~ 0.5, f 3;
#X msg 776 664 \$1 3000;
#X obj 775 795 r mV;
#X obj 693 793 r mV;
#X obj 837 747 *~;
#X floatatom 855 774 5 0 0 0 - - - 0;
#X obj 855 628 tgl 15 0 empty empty empty 17 7 0 10 #fcfcfc #000000
#000000 0 1;
#X obj 855 697 line 0 10, f 5;
#X obj 837 819 *~ 0.5, f 3;
#X msg 855 664 \$1 3000;
#X obj 918 748 *~;
#X floatatom 937 775 5 0 0 0 - - - 0;
#X obj 938 630 tgl 15 0 empty empty empty 17 7 0 10 #fcfcfc #000000
#000000 0 1;
#X obj 937 698 line 0 10, f 5;
#X obj 918 820 *~ 0.5, f 3;
#X msg 937 665 \$1 3000;
#X obj 936 796 r mV;
#X obj 854 794 r mV;
#X obj 998 747 *~;
#X floatatom 1016 774 5 0 0 0 - - - 0;
#X obj 1016 697 line 0 10, f 5;
#X obj 998 819 *~ 0.5, f 3;
#X msg 1016 664 \$1 3000;
#X obj 1079 748 *~;
#X floatatom 1098 775 5 0 0 0 - - - 0;
#X obj 1098 698 line 0 10, f 5;
#X obj 1079 820 *~ 0.5, f 3;
#X msg 1098 665 \$1 3000;
#X obj 1097 796 r mV;
#X obj 1015 794 r mV;
#X obj 1159 748 *~;
#X floatatom 1177 775 5 0 0 0 - - - 0;
#X obj 1177 698 line 0 10, f 5;
#X obj 1159 820 *~ 0.5, f 3;
#X msg 1177 665 \$1 3000;
#X obj 1240 749 *~;
#X floatatom 1259 776 5 0 0 0 - - - 0;
#X obj 1259 699 line 0 10, f 5;
#X obj 1240 821 *~ 0.5, f 3;
#X msg 1259 666 \$1 3000;
#X obj 1258 797 r mV;
#X obj 1176 795 r mV;
#X obj 1320 748 *~;
#X floatatom 1338 775 5 0 0 0 - - - 0;
#X obj 1338 698 line 0 10, f 5;
#X obj 1320 820 *~ 0.5, f 3;
#X msg 1338 665 \$1 3000;
#X obj 1401 749 *~;
#X floatatom 1420 776 5 0 0 0 - - - 0;
#X obj 1420 699 line 0 10, f 5;
#X obj 1401 821 *~ 0.5, f 3;
#X msg 1420 666 \$1 3000;
#X obj 1419 797 r mV;
#X obj 1337 795 r mV;
#X obj 1481 750 *~;
#X floatatom 1499 777 5 0 0 0 - - - 0;
#X obj 1499 700 line 0 10, f 5;
#X obj 1481 822 *~ 0.5, f 3;
#X msg 1499 667 \$1 3000;
#X obj 1562 751 *~;
#X floatatom 1581 778 5 0 0 0 - - - 0;
#X obj 1581 701 line 0 10, f 5;
#X obj 1562 823 *~ 0.5, f 3;
#X msg 1581 668 \$1 3000;
#X obj 1580 799 r mV;
#X obj 1498 797 r mV;
#X obj 1642 750 *~;
#X floatatom 1660 777 5 0 0 0 - - - 0;
#X obj 1660 700 line 0 10, f 5;
#X obj 1642 822 *~ 0.5, f 3;
#X msg 1660 667 \$1 3000;
#X obj 1723 751 *~;
#X floatatom 1742 778 5 0 0 0 - - - 0;
#X obj 1742 701 line 0 10, f 5;
#X obj 1723 823 *~ 0.5, f 3;
#X msg 1742 668 \$1 3000;
#X obj 1741 799 r mV;
#X obj 1659 797 r mV;
#X obj 1803 751 *~;
#X floatatom 1821 778 5 0 0 0 - - - 0;
#X obj 1821 701 line 0 10, f 5;
#X obj 1803 823 *~ 0.5, f 3;
#X msg 1821 668 \$1 3000;
#X obj 1884 751 *~;
#X floatatom 1903 778 5 0 0 0 - - - 0;
#X obj 1903 701 line 0 10, f 5;
#X obj 1884 823 *~ 0.5, f 3;
#X msg 1903 668 \$1 3000;
#X obj 1902 799 r mV;
#X obj 1820 798 r mV;
#X obj 1964 750 *~;
#X floatatom 1983 777 5 0 0 0 - - - 0;
#X obj 1983 700 line 0 10, f 5;
#X obj 1964 822 *~ 0.5, f 3;
#X msg 1983 667 \$1 3000;
#X obj 1982 798 r mV;
#X obj 2044 749 *~;
#X floatatom 2062 776 5 0 0 0 - - - 0;
#X obj 2062 699 line 0 10, f 5;
#X obj 2044 821 *~ 0.5, f 3;
#X msg 2062 666 \$1 3000;
#X obj 2125 750 *~;
#X floatatom 2144 777 5 0 0 0 - - - 0;
#X obj 2144 700 line 0 10, f 5;
#X obj 2125 822 *~ 0.5, f 3;
#X msg 2144 667 \$1 3000;
#X obj 2143 798 r mV;
#X obj 2061 796 r mV;
#X obj 2205 750 *~;
#X floatatom 2223 777 5 0 0 0 - - - 0;
#X obj 2223 700 line 0 10, f 5;
#X obj 2205 822 *~ 0.5, f 3;
#X msg 2223 667 \$1 3000;
#X obj 2286 751 *~;
#X floatatom 2305 778 5 0 0 0 - - - 0;
#X obj 2305 701 line 0 10, f 5;
#X obj 2286 823 *~ 0.5, f 3;
#X msg 2305 668 \$1 3000;
#X obj 2304 799 r mV;
#X obj 2222 797 r mV;
#X obj 2366 750 *~;
#X floatatom 2384 777 5 0 0 0 - - - 0;
#X obj 2384 700 line 0 10, f 5;
#X obj 2366 822 *~ 0.5, f 3;
#X msg 2384 667 \$1 3000;
#X obj 2447 751 *~;
#X floatatom 2466 778 5 0 0 0 - - - 0;
#X obj 2466 701 line 0 10, f 5;
#X obj 2447 823 *~ 0.5, f 3;
#X msg 2466 668 \$1 3000;
#X obj 2465 799 r mV;
#X obj 2383 797 r mV;
#X obj 2528 751 *~;
#X floatatom 2546 778 5 0 0 0 - - - 0;
#X obj 2546 701 line 0 10, f 5;
#X obj 2528 823 *~ 0.5, f 3;
#X msg 2546 668 \$1 3000;
#X obj 2545 798 r mV;
#X obj 116 923 throw~ Layer4;
#X obj 694 358 bng 15 250 50 0 empty empty empty 17 7 0 10 #fcfcfc
#000000 #000000;
#X obj 704 426 delay 4000, f 5;
#X obj 705 464 bng 15 250 50 0 empty empty empty 17 7 0 10 #fcfcfc
#000000 #000000;
#X obj 779 358 bng 15 250 50 0 empty empty empty 17 7 0 10 #fcfcfc
#000000 #000000;
#X obj 789 426 delay 4000, f 5;
#X obj 790 464 bng 15 250 50 0 empty empty empty 17 7 0 10 #fcfcfc
#000000 #000000;
#X obj 860 358 bng 15 250 50 0 empty empty empty 17 7 0 10 #fcfcfc
#000000 #000000;
#X obj 868 426 delay 4000, f 5;
#X obj 869 464 bng 15 250 50 0 empty empty empty 17 7 0 10 #fcfcfc
#000000 #000000;
#X obj 937 359 bng 15 250 50 0 empty empty empty 17 7 0 10 #fcfcfc
#000000 #000000;
#X obj 950 427 delay 4000, f 5;
#X obj 951 465 bng 15 250 50 0 empty empty empty 17 7 0 10 #fcfcfc
#000000 #000000;
#X obj 1016 630 tgl 15 0 empty empty empty 17 7 0 10 #fcfcfc #000000
#000000 0 1;
#X obj 1098 631 tgl 15 0 empty empty empty 17 7 0 10 #fcfcfc #000000
#000000 0 1;
#X obj 1177 631 tgl 15 0 empty empty empty 17 7 0 10 #fcfcfc #000000
#000000 0 1;
#X obj 1260 633 tgl 15 0 empty empty empty 17 7 0 10 #fcfcfc #000000
#000000 0 1;
#X obj 1016 361 bng 15 250 50 0 empty empty empty 17 7 0 10 #fcfcfc
#000000 #000000;
#X obj 1026 429 delay 4000, f 5;
#X obj 1027 467 bng 15 250 50 0 empty empty empty 17 7 0 10 #fcfcfc
#000000 #000000;
#X obj 1101 361 bng 15 250 50 0 empty empty empty 17 7 0 10 #fcfcfc
#000000 #000000;
#X obj 1111 429 delay 4000, f 5;
#X obj 1112 467 bng 15 250 50 0 empty empty empty 17 7 0 10 #fcfcfc
#000000 #000000;
#X obj 1182 361 bng 15 250 50 0 empty empty empty 17 7 0 10 #fcfcfc
#000000 #000000;
#X obj 1190 429 delay 4000, f 5;
#X obj 1191 467 bng 15 250 50 0 empty empty empty 17 7 0 10 #fcfcfc
#000000 #000000;
#X obj 1259 362 bng 15 250 50 0 empty empty empty 17 7 0 10 #fcfcfc
#000000 #000000;
#X obj 1272 430 delay 4000, f 5;
#X obj 1273 468 bng 15 250 50 0 empty empty empty 17 7 0 10 #fcfcfc
#000000 #000000;
#X obj 1339 630 tgl 15 0 empty empty empty 17 7 0 10 #fcfcfc #000000
#000000 0 1;
#X obj 1421 631 tgl 15 0 empty empty empty 17 7 0 10 #fcfcfc #000000
#000000 0 1;
#X obj 1500 631 tgl 15 0 empty empty empty 17 7 0 10 #fcfcfc #000000
#000000 0 1;
#X obj 1583 633 tgl 15 0 empty empty empty 17 7 0 10 #fcfcfc #000000
#000000 0 1;
#X obj 1339 361 bng 15 250 50 0 empty empty empty 17 7 0 10 #fcfcfc
#000000 #000000;
#X obj 1349 429 delay 4000, f 5;
#X obj 1350 467 bng 15 250 50 0 empty empty empty 17 7 0 10 #fcfcfc
#000000 #000000;
#X obj 1424 361 bng 15 250 50 0 empty empty empty 17 7 0 10 #fcfcfc
#000000 #000000;
#X obj 1434 429 delay 4000, f 5;
#X obj 1435 467 bng 15 250 50 0 empty empty empty 17 7 0 10 #fcfcfc
#000000 #000000;
#X obj 1505 361 bng 15 250 50 0 empty empty empty 17 7 0 10 #fcfcfc
#000000 #000000;
#X obj 1513 429 delay 4000, f 5;
#X obj 1514 467 bng 15 250 50 0 empty empty empty 17 7 0 10 #fcfcfc
#000000 #000000;
#X obj 1582 362 bng 15 250 50 0 empty empty empty 17 7 0 10 #fcfcfc
#000000 #000000;
#X obj 1595 430 delay 4000, f 5;
#X obj 1596 468 bng 15 250 50 0 empty empty empty 17 7 0 10 #fcfcfc
#000000 #000000;
#X obj 1661 633 tgl 15 0 empty empty empty 17 7 0 10 #fcfcfc #000000
#000000 0 1;
#X obj 1743 634 tgl 15 0 empty empty empty 17 7 0 10 #fcfcfc #000000
#000000 0 1;
#X obj 1822 634 tgl 15 0 empty empty empty 17 7 0 10 #fcfcfc #000000
#000000 0 1;
#X obj 1905 636 tgl 15 0 empty empty empty 17 7 0 10 #fcfcfc #000000
#000000 0 1;
#X obj 1661 364 bng 15 250 50 0 empty empty empty 17 7 0 10 #fcfcfc
#000000 #000000;
#X obj 1671 432 delay 4000, f 5;
#X obj 1672 470 bng 15 250 50 0 empty empty empty 17 7 0 10 #fcfcfc
#000000 #000000;
#X obj 1746 364 bng 15 250 50 0 empty empty empty 17 7 0 10 #fcfcfc
#000000 #000000;
#X obj 1756 432 delay 4000, f 5;
#X obj 1757 470 bng 15 250 50 0 empty empty empty 17 7 0 10 #fcfcfc
#000000 #000000;
#X obj 1827 364 bng 15 250 50 0 empty empty empty 17 7 0 10 #fcfcfc
#000000 #000000;
#X obj 1835 432 delay 4000, f 5;
#X obj 1836 470 bng 15 250 50 0 empty empty empty 17 7 0 10 #fcfcfc
#000000 #000000;
#X obj 1904 365 bng 15 250 50 0 empty empty empty 17 7 0 10 #fcfcfc
#000000 #000000;
#X obj 1917 433 delay 4000, f 5;
#X obj 1918 471 bng 15 250 50 0 empty empty empty 17 7 0 10 #fcfcfc
#000000 #000000;
#X obj 1991 633 tgl 15 0 empty empty empty 17 7 0 10 #fcfcfc #000000
#000000 0 1;
#X obj 2073 634 tgl 15 0 empty empty empty 17 7 0 10 #fcfcfc #000000
#000000 0 1;
#X obj 2152 634 tgl 15 0 empty empty empty 17 7 0 10 #fcfcfc #000000
#000000 0 1;
#X obj 2235 636 tgl 15 0 empty empty empty 17 7 0 10 #fcfcfc #000000
#000000 0 1;
#X obj 1991 364 bng 15 250 50 0 empty empty empty 17 7 0 10 #fcfcfc
#000000 #000000;
#X obj 2001 432 delay 4000, f 5;
#X obj 2002 470 bng 15 250 50 0 empty empty empty 17 7 0 10 #fcfcfc
#000000 #000000;
#X obj 2076 364 bng 15 250 50 0 empty empty empty 17 7 0 10 #fcfcfc
#000000 #000000;
#X obj 2086 432 delay 4000, f 5;
#X obj 2087 470 bng 15 250 50 0 empty empty empty 17 7 0 10 #fcfcfc
#000000 #000000;
#X obj 2157 364 bng 15 250 50 0 empty empty empty 17 7 0 10 #fcfcfc
#000000 #000000;
#X obj 2165 432 delay 4000, f 5;
#X obj 2166 470 bng 15 250 50 0 empty empty empty 17 7 0 10 #fcfcfc
#000000 #000000;
#X obj 2234 365 bng 15 250 50 0 empty empty empty 17 7 0 10 #fcfcfc
#000000 #000000;
#X obj 2247 433 delay 4000, f 5;
#X obj 2248 471 bng 15 250 50 0 empty empty empty 17 7 0 10 #fcfcfc
#000000 #000000;
#X obj 2313 636 tgl 15 0 empty empty empty 17 7 0 10 #fcfcfc #000000
#000000 0 1;
#X obj 2395 637 tgl 15 0 empty empty empty 17 7 0 10 #fcfcfc #000000
#000000 0 1;
#X obj 2474 637 tgl 15 0 empty empty empty 17 7 0 10 #fcfcfc #000000
#000000 0 1;
#X obj 2557 639 tgl 15 0 empty empty empty 17 7 0 10 #fcfcfc #000000
#000000 0 1;
#X obj 2313 367 bng 15 250 50 0 empty empty empty 17 7 0 10 #fcfcfc
#000000 #000000;
#X obj 2323 435 delay 4000, f 5;
#X obj 2324 473 bng 15 250 50 0 empty empty empty 17 7 0 10 #fcfcfc
#000000 #000000;
#X obj 2398 367 bng 15 250 50 0 empty empty empty 17 7 0 10 #fcfcfc
#000000 #000000;
#X obj 2408 435 delay 4000, f 5;
#X obj 2409 473 bng 15 250 50 0 empty empty empty 17 7 0 10 #fcfcfc
#000000 #000000;
#X obj 2479 367 bng 15 250 50 0 empty empty empty 17 7 0 10 #fcfcfc
#000000 #000000;
#X obj 2487 435 delay 4000, f 5;
#X obj 2488 473 bng 15 250 50 0 empty empty empty 17 7 0 10 #fcfcfc
#000000 #000000;
#X obj 2556 368 bng 15 250 50 0 empty empty empty 17 7 0 10 #fcfcfc
#000000 #000000;
#X obj 2569 436 delay 4000, f 5;
#X obj 2570 474 bng 15 250 50 0 empty empty empty 17 7 0 10 #fcfcfc
#000000 #000000;
#X obj 2584 517 s loop;
#X obj 749 287 r loop;
#X obj 575 521 catch~ Layer4;
#X obj 677 553 *~ 1;
#X obj 757 554 *~ 1;
#X obj 837 554 *~ 1;
#X obj 919 556 *~ 1, f 7;
#X obj 999 556 *~ 1, f 7;
#X obj 1079 557 *~ 1, f 7;
#X obj 1159 557 *~ 1, f 7;
#X obj 1241 559 *~ 1, f 7;
#X obj 1322 556 *~ 1, f 7;
#X obj 1402 557 *~ 1, f 7;
#X obj 1482 557 *~ 1, f 7;
#X obj 1564 559 *~ 1, f 7;
#X obj 1644 559 *~ 1, f 7;
#X obj 1724 560 *~ 1, f 7;
#X obj 1804 560 *~ 1, f 7;
#X obj 1886 562 *~ 1, f 7;
#X obj 1974 559 *~ 1, f 7;
#X obj 2054 560 *~ 1, f 7;
#X obj 2134 560 *~ 1, f 7;
#X obj 2216 562 *~ 1, f 7;
#X obj 2296 562 *~ 1, f 7;
#X obj 2376 563 *~ 1, f 7;
#X obj 2456 563 *~ 1, f 7;
#X obj 2538 565 *~ 1, f 7;
#X obj 100 494 random 47;
#X connect 0 0 1 0;
#X connect 1 0 2 1;
#X connect 1 0 6 0;
#X connect 2 0 5 0;
#X connect 3 0 2 0;
#X connect 4 0 3 0;
#X connect 5 0 19 0;
#X connect 6 0 2 0;
#X connect 7 0 8 0;
#X connect 8 0 11 0;
#X connect 8 0 16 0;
#X connect 9 0 12 0;
#X connect 9 1 14 0;
#X connect 10 0 9 0;
#X connect 11 0 13 0;
#X connect 12 0 170 0;
#X connect 13 0 10 0;
#X connect 14 0 17 0;
#X connect 16 0 9 0;
#X connect 16 0 18 0;
#X connect 19 0 290 0;
#X connect 20 0 171 0;
#X connect 22 0 26 0;
#X connect 24 0 27 0;
#X connect 25 0 22 1;
#X connect 25 0 23 0;
#X connect 26 0 21 0;
#X connect 27 0 25 0;
#X connect 28 0 32 0;
#X connect 30 0 33 0;
#X connect 31 0 28 1;
#X connect 31 0 29 0;
#X connect 32 0 21 1;
#X connect 33 0 31 0;
#X connect 34 0 32 1;
#X connect 35 0 26 1;
#X connect 36 0 40 0;
#X connect 38 0 41 0;
#X connect 39 0 36 1;
#X connect 39 0 37 0;
#X connect 40 0 21 2;
#X connect 41 0 39 0;
#X connect 42 0 46 0;
#X connect 44 0 47 0;
#X connect 45 0 42 1;
#X connect 45 0 43 0;
#X connect 46 0 21 3;
#X connect 47 0 45 0;
#X connect 48 0 46 1;
#X connect 49 0 40 1;
#X connect 50 0 53 0;
#X connect 52 0 50 1;
#X connect 52 0 51 0;
#X connect 53 0 21 4;
#X connect 54 0 52 0;
#X connect 55 0 58 0;
#X connect 57 0 55 1;
#X connect 57 0 56 0;
#X connect 58 0 21 5;
#X connect 59 0 57 0;
#X connect 60 0 58 1;
#X connect 61 0 53 1;
#X connect 62 0 65 0;
#X connect 64 0 62 1;
#X connect 64 0 63 0;
#X connect 65 0 21 6;
#X connect 66 0 64 0;
#X connect 67 0 70 0;
#X connect 69 0 67 1;
#X connect 69 0 68 0;
#X connect 70 0 21 7;
#X connect 71 0 69 0;
#X connect 72 0 70 1;
#X connect 73 0 65 1;
#X connect 74 0 77 0;
#X connect 76 0 74 1;
#X connect 76 0 75 0;
#X connect 77 0 21 8;
#X connect 78 0 76 0;
#X connect 79 0 82 0;
#X connect 81 0 79 1;
#X connect 81 0 80 0;
#X connect 82 0 21 9;
#X connect 83 0 81 0;
#X connect 84 0 82 1;
#X connect 85 0 77 1;
#X connect 86 0 89 0;
#X connect 88 0 86 1;
#X connect 88 0 87 0;
#X connect 89 0 21 10;
#X connect 90 0 88 0;
#X connect 91 0 94 0;
#X connect 93 0 91 1;
#X connect 93 0 92 0;
#X connect 94 0 21 11;
#X connect 95 0 93 0;
#X connect 96 0 94 1;
#X connect 97 0 89 1;
#X connect 98 0 101 0;
#X connect 100 0 98 1;
#X connect 100 0 99 0;
#X connect 101 0 21 12;
#X connect 102 0 100 0;
#X connect 103 0 106 0;
#X connect 105 0 103 1;
#X connect 105 0 104 0;
#X connect 106 0 21 13;
#X connect 107 0 105 0;
#X connect 108 0 106 1;
#X connect 109 0 101 1;
#X connect 110 0 113 0;
#X connect 112 0 110 1;
#X connect 112 0 111 0;
#X connect 113 0 21 14;
#X connect 114 0 112 0;
#X connect 115 0 118 0;
#X connect 117 0 115 1;
#X connect 117 0 116 0;
#X connect 118 0 21 15;
#X connect 119 0 117 0;
#X connect 120 0 118 1;
#X connect 121 0 113 1;
#X connect 122 0 125 0;
#X connect 124 0 122 1;
#X connect 124 0 123 0;
#X connect 125 0 21 16;
#X connect 126 0 124 0;
#X connect 127 0 125 1;
#X connect 128 0 131 0;
#X connect 130 0 128 1;
#X connect 130 0 129 0;
#X connect 131 0 21 17;
#X connect 132 0 130 0;
#X connect 133 0 136 0;
#X connect 135 0 133 1;
#X connect 135 0 134 0;
#X connect 136 0 21 18;
#X connect 137 0 135 0;
#X connect 138 0 136 1;
#X connect 139 0 131 1;
#X connect 140 0 143 0;
#X connect 142 0 140 1;
#X connect 142 0 141 0;
#X connect 143 0 21 19;
#X connect 144 0 142 0;
#X connect 145 0 148 0;
#X connect 147 0 145 1;
#X connect 147 0 146 0;
#X connect 148 0 21 20;
#X connect 149 0 147 0;
#X connect 150 0 148 1;
#X connect 151 0 143 1;
#X connect 152 0 155 0;
#X connect 154 0 152 1;
#X connect 154 0 153 0;
#X connect 155 0 21 21;
#X connect 156 0 154 0;
#X connect 157 0 160 0;
#X connect 159 0 157 1;
#X connect 159 0 158 0;
#X connect 160 0 21 22;
#X connect 161 0 159 0;
#X connect 162 0 160 1;
#X connect 163 0 155 1;
#X connect 164 0 167 0;
#X connect 166 0 164 1;
#X connect 166 0 165 0;
#X connect 167 0 21 23;
#X connect 168 0 166 0;
#X connect 169 0 167 1;
#X connect 171 0 172 0;
#X connect 171 0 24 0;
#X connect 172 0 173 0;
#X connect 172 0 174 0;
#X connect 173 0 24 0;
#X connect 174 0 175 0;
#X connect 174 0 30 0;
#X connect 175 0 176 0;
#X connect 175 0 177 0;
#X connect 176 0 30 0;
#X connect 177 0 178 0;
#X connect 177 0 38 0;
#X connect 178 0 179 0;
#X connect 178 0 180 0;
#X connect 179 0 38 0;
#X connect 180 0 181 0;
#X connect 180 0 44 0;
#X connect 181 0 182 0;
#X connect 181 0 187 0;
#X connect 182 0 44 0;
#X connect 184 0 59 0;
#X connect 185 0 66 0;
#X connect 186 0 71 0;
#X connect 187 0 188 0;
#X connect 187 0 183 0;
#X connect 188 0 189 0;
#X connect 188 0 190 0;
#X connect 189 0 183 0;
#X connect 190 0 191 0;
#X connect 190 0 184 0;
#X connect 191 0 192 0;
#X connect 191 0 193 0;
#X connect 192 0 184 0;
#X connect 193 0 194 0;
#X connect 193 0 185 0;
#X connect 194 0 195 0;
#X connect 194 0 196 0;
#X connect 195 0 185 0;
#X connect 196 0 197 0;
#X connect 196 0 186 0;
#X connect 197 0 198 0;
#X connect 197 0 203 0;
#X connect 198 0 186 0;
#X connect 199 0 78 0;
#X connect 200 0 83 0;
#X connect 201 0 90 0;
#X connect 202 0 95 0;
#X connect 203 0 204 0;
#X connect 203 0 199 0;
#X connect 204 0 205 0;
#X connect 204 0 206 0;
#X connect 205 0 199 0;
#X connect 206 0 207 0;
#X connect 206 0 200 0;
#X connect 207 0 208 0;
#X connect 207 0 209 0;
#X connect 208 0 200 0;
#X connect 209 0 210 0;
#X connect 209 0 201 0;
#X connect 210 0 211 0;
#X connect 210 0 212 0;
#X connect 211 0 201 0;
#X connect 212 0 213 0;
#X connect 212 0 202 0;
#X connect 213 0 214 0;
#X connect 213 0 219 0;
#X connect 214 0 202 0;
#X connect 215 0 102 0;
#X connect 216 0 107 0;
#X connect 217 0 114 0;
#X connect 218 0 119 0;
#X connect 219 0 220 0;
#X connect 219 0 215 0;
#X connect 220 0 221 0;
#X connect 220 0 222 0;
#X connect 221 0 215 0;
#X connect 222 0 223 0;
#X connect 222 0 216 0;
#X connect 223 0 224 0;
#X connect 223 0 225 0;
#X connect 224 0 216 0;
#X connect 225 0 226 0;
#X connect 225 0 217 0;
#X connect 226 0 227 0;
#X connect 226 0 228 0;
#X connect 227 0 217 0;
#X connect 228 0 229 0;
#X connect 228 0 218 0;
#X connect 229 0 230 0;
#X connect 229 0 235 0;
#X connect 230 0 218 0;
#X connect 231 0 126 0;
#X connect 232 0 132 0;
#X connect 233 0 137 0;
#X connect 234 0 144 0;
#X connect 235 0 236 0;
#X connect 235 0 231 0;
#X connect 236 0 237 0;
#X connect 236 0 238 0;
#X connect 237 0 231 0;
#X connect 238 0 239 0;
#X connect 238 0 232 0;
#X connect 239 0 240 0;
#X connect 239 0 241 0;
#X connect 240 0 232 0;
#X connect 241 0 242 0;
#X connect 241 0 233 0;
#X connect 242 0 243 0;
#X connect 242 0 244 0;
#X connect 243 0 233 0;
#X connect 244 0 245 0;
#X connect 244 0 234 0;
#X connect 245 0 246 0;
#X connect 245 0 251 0;
#X connect 246 0 234 0;
#X connect 247 0 149 0;
#X connect 248 0 156 0;
#X connect 249 0 161 0;
#X connect 250 0 168 0;
#X connect 251 0 252 0;
#X connect 251 0 247 0;
#X connect 252 0 253 0;
#X connect 252 0 254 0;
#X connect 253 0 247 0;
#X connect 254 0 255 0;
#X connect 254 0 248 0;
#X connect 255 0 256 0;
#X connect 255 0 257 0;
#X connect 256 0 248 0;
#X connect 257 0 258 0;
#X connect 257 0 249 0;
#X connect 258 0 259 0;
#X connect 258 0 260 0;
#X connect 259 0 249 0;
#X connect 260 0 261 0;
#X connect 260 0 250 0;
#X connect 261 0 262 0;
#X connect 262 0 250 0;
#X connect 262 0 263 0;
#X connect 264 0 171 0;
#X connect 265 0 266 0;
#X connect 266 0 22 0;
#X connect 266 0 267 0;
#X connect 267 0 28 0;
#X connect 267 0 268 0;
#X connect 268 0 36 0;
#X connect 268 0 269 0;
#X connect 269 0 42 0;
#X connect 269 0 270 0;
#X connect 270 0 50 0;
#X connect 270 0 271 0;
#X connect 271 0 55 0;
#X connect 271 0 272 0;
#X connect 272 0 62 0;
#X connect 272 0 273 0;
#X connect 273 0 67 0;
#X connect 273 0 274 0;
#X connect 274 0 74 0;
#X connect 274 0 275 0;
#X connect 275 0 79 0;
#X connect 275 0 276 0;
#X connect 276 0 86 0;
#X connect 276 0 277 0;
#X connect 277 0 91 0;
#X connect 277 0 278 0;
#X connect 278 0 98 0;
#X connect 278 0 279 0;
#X connect 279 0 103 0;
#X connect 279 0 280 0;
#X connect 280 0 110 0;
#X connect 280 0 281 0;
#X connect 281 0 115 0;
#X connect 281 0 282 0;
#X connect 282 0 122 0;
#X connect 282 0 283 0;
#X connect 283 0 128 0;
#X connect 283 0 284 0;
#X connect 284 0 133 0;
#X connect 284 0 285 0;
#X connect 285 0 140 0;
#X connect 285 0 286 0;
#X connect 286 0 145 0;
#X connect 286 0 287 0;
#X connect 287 0 152 0;
#X connect 287 0 288 0;
#X connect 288 0 157 0;
#X connect 288 0 289 0;
#X connect 289 0 164 0;
#X connect 290 0 7 0;
